<svg width="13" height="12" viewBox="0 0 13 12" fill="none" xmlns="http://www.w3.org/2000/svg">
<path d="M10.7918 0.292816C11.1823 -0.0976567 11.8154 -0.0975543 12.2059 0.292816C12.5964 0.683341 12.5964 1.31635 12.2059 1.70688L7.96371 5.94907L12.2069 10.1922C12.5973 10.5827 12.5972 11.2158 12.2069 11.6063C11.8164 11.9968 11.1833 11.9968 10.7928 11.6063L6.54965 7.36313L2.30649 11.6063C1.91596 11.9968 1.28295 11.9968 0.892426 11.6063C0.502055 11.2158 0.501953 10.5827 0.892426 10.1922L5.13559 5.94907L0.893402 1.70688C0.502878 1.31635 0.502878 0.683341 0.893402 0.292816C1.28394 -0.0974826 1.91702 -0.0976328 2.30746 0.292816L6.54965 4.535L10.7918 0.292816Z" fill="#FCF7F4"/>
</svg>
