<svg width="34" height="34" viewBox="0 0 34 34" fill="none" xmlns="http://www.w3.org/2000/svg">
<path d="M28.2744 4.84477C25.9594 2.53077 23.0101 0.955206 19.7997 0.317319C16.5892 -0.320568 13.2617 0.00787079 10.2379 1.2611C7.21405 2.51433 4.62976 4.63607 2.81179 7.35802C0.993812 10.08 0.0238013 13.2799 0.0244144 16.5531C0.0244138 20.9432 1.7678 25.1536 4.87129 28.2587C7.97478 31.3637 12.1843 33.1092 16.5744 33.1114C18.7468 33.1115 20.8983 32.6869 22.9077 31.8614C24.9104 31.0156 26.7322 29.7935 28.2744 28.2614C29.8121 26.724 31.0319 24.8987 31.8642 22.8897C32.6964 20.8808 33.1248 18.7276 33.1248 16.5531C33.1248 14.3786 32.6964 12.2254 31.8642 10.2165C31.0319 8.20756 29.8121 6.38224 28.2744 4.84477ZM27.1077 27.0781C24.7246 29.4717 21.5974 30.9824 18.2411 31.3614V20.4281H21.3744C21.8164 20.4281 22.2404 20.2525 22.5529 19.9399C22.8655 19.6274 23.0411 19.2035 23.0411 18.7614C23.0411 18.3194 22.8655 17.8955 22.5529 17.5829C22.2404 17.2704 21.8164 17.0948 21.3744 17.0948H18.2411V12.5281C18.2411 12.0861 18.4167 11.6622 18.7292 11.3496C19.0418 11.037 19.4657 10.8614 19.9077 10.8614H21.9077C22.3498 10.8614 22.7737 10.6858 23.0863 10.3733C23.3988 10.0607 23.5744 9.6368 23.5744 9.19477C23.5744 8.75275 23.3988 8.32882 23.0863 8.01626C22.7737 7.7037 22.3498 7.52811 21.9077 7.52811H19.0744C17.9693 7.52811 16.9095 7.96709 16.1281 8.7485C15.3467 9.5299 14.9077 10.5897 14.9077 11.6948V17.0948H11.7911C11.3491 17.0948 10.9251 17.2704 10.6126 17.5829C10.3 17.8955 10.1244 18.3194 10.1244 18.7614C10.1244 19.2035 10.3 19.6274 10.6126 19.9399C10.9251 20.2525 11.3491 20.4281 11.7911 20.4281H14.9077V31.3614C11.8126 31.0083 8.90655 29.6917 6.60016 27.5976C4.29378 25.5034 2.7036 22.7376 2.05425 19.6908C1.40489 16.6439 1.72918 13.4701 2.9813 10.6175C4.23342 7.76499 6.35009 5.37791 9.03233 3.79347C11.7146 2.20904 14.8268 1.50733 17.9295 1.78747C21.0321 2.06761 23.9683 3.31543 26.3234 5.35468C28.6784 7.39393 30.3333 10.1215 31.0542 13.1522C31.7751 16.1829 31.5257 19.3635 30.3411 22.2448C29.5851 24.0494 28.4872 25.6906 27.1077 27.0781Z" fill="#FCF7F4"/>
</svg>
