<svg width="13" height="13" viewBox="0 0 13 13" fill="none" xmlns="http://www.w3.org/2000/svg">
<path fill-rule="evenodd" clip-rule="evenodd" d="M9.57336 0.513426C8.76411 0.612558 8.02515 0.901634 7.32047 1.39469L7.14159 1.51986L6.73458 1.54442C6.04291 1.58616 5.57903 1.66867 5.07376 1.83982C4.78623 1.93722 4.28978 2.17022 4.01097 2.33865C3.84336 2.43989 3.3927 2.75216 3.33125 2.80967C3.32026 2.81996 3.57711 3.24091 3.90206 3.74512L4.49287 4.66184L4.36238 4.94843C4.11446 5.49298 3.88418 6.14837 3.72649 6.75833C3.63267 7.12115 3.4806 7.85119 3.48032 7.93999C3.48018 7.98679 3.40284 7.92063 3.04074 7.56401C2.65917 7.18823 2.57665 7.1186 2.41385 7.03503C1.94235 6.79296 1.46755 6.75523 0.988716 6.92174C0.732708 7.01077 0.581596 7.11459 0.281225 7.40784L0 7.68238L0.796804 8.48123C1.64896 9.33559 1.7592 9.42617 2.08999 9.54374C2.27907 9.61095 2.62186 9.66387 2.75361 9.6462L2.84065 9.63453L2.85509 9.88377C2.87271 10.1882 2.91478 10.3539 3.04034 10.6135C3.13411 10.8073 3.15914 10.8352 3.97565 11.6563L4.81462 12.5L5.02813 12.2891C5.49916 11.8238 5.66309 11.4719 5.66675 10.9181C5.66816 10.7073 5.65728 10.6087 5.6169 10.4656C5.51055 10.0885 5.37339 9.88916 4.88902 9.40772L4.53653 9.05736L5.0223 8.96001C6.32409 8.69911 7.56321 8.24169 8.50527 7.67435L8.76125 7.52016L9.6536 7.92909C10.1444 8.154 10.561 8.34115 10.5795 8.34497C10.6069 8.35065 10.6462 8.08137 10.7927 6.88265L10.9723 5.41339L11.1494 5.14344C11.7992 4.15269 12.0089 3.30882 12.0103 1.6787L12.0106 1.28616H11.624H11.2373V0.913703C11.2373 0.580686 11.2329 0.539557 11.1963 0.525261C11.1306 0.499693 9.7667 0.489757 9.57336 0.513426ZM10.5108 1.61426V2.01266H10.8956H11.2804L11.2696 2.24115C11.2267 3.14785 11.1226 3.62244 10.8384 4.20731C10.5741 4.75132 10.1172 5.35673 9.51608 5.95977C8.79127 6.6868 7.97643 7.2103 6.87447 7.65691C6.12688 7.95991 5.09242 8.23551 4.26782 8.3514L4.15324 8.3675L4.1697 8.24254C4.23696 7.73233 4.42578 6.92073 4.61042 6.34821C5.06697 4.93273 5.73406 3.79984 6.61183 2.9493C7.45054 2.13663 8.18006 1.63992 8.85858 1.41958C9.31414 1.27163 9.63488 1.22178 10.1534 1.21827L10.5108 1.21586V1.61426ZM9.11628 2.17682L8.8591 2.43478L9.15764 2.73332L9.45616 3.03186L9.71407 2.77396L9.97197 2.51605L9.6727 2.21744L9.37343 1.91885L9.11628 2.17682ZM5.90253 2.62784C5.56668 2.97199 5.34437 3.24766 5.07383 3.65553L4.89348 3.92745L4.6145 3.4938C4.46109 3.2553 4.33255 3.04803 4.32887 3.0332C4.31394 2.97302 4.97046 2.64579 5.36621 2.51615C5.56788 2.45008 6.08083 2.32641 6.18456 2.31884C6.19611 2.318 6.06921 2.45706 5.90253 2.62784ZM7.69853 3.18567C7.69853 3.53643 7.8817 3.96684 8.15423 4.25658C8.42756 4.5471 8.71647 4.71303 9.08342 4.79022C9.3496 4.84621 9.33008 4.86311 9.34794 4.56126C9.35651 4.41626 9.36943 4.25508 9.3766 4.2031L9.38967 4.10858L9.25187 4.08011C8.87885 4.00305 8.58291 3.73441 8.46944 3.36978C8.44502 3.29132 8.42503 3.19115 8.42503 3.14719V3.06725H8.06178H7.69853V3.18567ZM6.59706 4.28713C6.59706 4.47724 6.66343 4.72646 6.77721 4.96355C6.86805 5.15279 6.91363 5.21452 7.09748 5.39711C7.21538 5.51421 7.37235 5.6455 7.44634 5.68888C7.61238 5.78623 7.92426 5.89433 8.09932 5.91524L8.23058 5.93089L8.24633 5.665C8.25498 5.51874 8.26796 5.35654 8.27513 5.30456L8.28821 5.21004L8.15041 5.18157C7.77739 5.10451 7.48145 4.83588 7.36797 4.47124C7.34355 4.39278 7.32356 4.29262 7.32356 4.24865V4.16872H6.96031H6.59706V4.28713ZM10.0593 6.86882L10.0069 7.28398L9.74913 7.16573C9.60734 7.1007 9.48344 7.0399 9.47376 7.03065C9.4641 7.02137 9.52738 6.95425 9.61437 6.88148C9.70139 6.80871 9.84631 6.67457 9.93645 6.58338C10.0266 6.49217 10.1029 6.42569 10.106 6.43562C10.1092 6.44554 10.0882 6.64049 10.0593 6.86882ZM1.80371 7.57934C2.05964 7.64601 2.15507 7.71766 2.68844 8.24366C2.96835 8.51973 3.19202 8.75427 3.18548 8.76487C3.16315 8.801 2.96275 8.8775 2.82507 8.90246C2.61551 8.94047 2.35139 8.88727 2.15606 8.7677C2.061 8.70951 1.06631 7.73551 1.06631 7.70062C1.06631 7.6755 1.2132 7.61341 1.35925 7.57679C1.52032 7.53638 1.64149 7.53709 1.80371 7.57934ZM4.25713 9.81079C4.67989 10.2387 4.77243 10.345 4.83418 10.4728C4.93367 10.6789 4.96629 10.8758 4.93219 11.0646C4.90526 11.2137 4.8231 11.4337 4.79437 11.4337C4.78565 11.4337 4.54602 11.1991 4.26182 10.9123C3.83848 10.485 3.73349 10.3659 3.68076 10.2529C3.59258 10.0639 3.55942 9.85004 3.59155 9.67728C3.618 9.53505 3.70844 9.30107 3.73696 9.30107C3.74615 9.30107 3.98022 9.53045 4.25713 9.81079Z" fill="#5F773F"/>
</svg>
