<svg width="13" height="13" viewBox="0 0 13 13" fill="none" xmlns="http://www.w3.org/2000/svg">
<path fill-rule="evenodd" clip-rule="evenodd" d="M10.915 0.536671C9.86783 0.73021 9.00808 1.50833 8.7307 2.51359C8.69241 2.65231 8.69241 2.65231 8.60104 2.42616C8.35744 1.82304 7.88722 1.25487 7.46085 1.04848C6.9072 0.780452 5.77336 1.90077 5.55318 2.93333C5.4879 3.23954 5.5088 3.21392 5.37838 3.14739C5.16704 3.03956 4.92282 3.11711 4.50581 3.42445C3.90815 3.86497 3.59396 4.38459 3.40928 5.23793C3.39515 5.30327 3.39515 5.30327 3.28679 5.24522C2.88747 5.03119 1.95475 5.71946 1.57709 6.50679C0.985662 7.73977 1.39209 9.32797 2.4712 10.0006C2.49553 10.0158 2.1976 10.3337 1.55477 10.9784C0.928571 11.6064 0.595496 11.9612 0.582527 12.0141C0.513341 12.2964 0.7749 12.5579 1.05721 12.4888C1.11004 12.4758 1.46413 12.1433 2.09106 11.518C2.61551 10.995 3.0489 10.5729 3.05417 10.5801C3.86172 11.6813 5.12851 12.0572 6.39122 11.5702C7.24214 11.2421 8.06105 10.2229 7.82607 9.7845C7.76802 9.67614 7.76802 9.67614 7.84793 9.65974C9.06037 9.41085 10.2334 8.29952 9.9239 7.6929C9.85737 7.56249 9.83175 7.58339 10.138 7.51811C11.1716 7.29773 12.2911 6.16465 12.0228 5.61044C11.8155 5.18221 11.2432 4.70965 10.6429 4.47097C10.4144 4.38016 10.4144 4.38016 10.5554 4.34123C11.8974 3.97085 12.7787 2.58851 12.5338 1.23826C12.4336 0.686029 12.386 0.638468 11.833 0.537691C11.5595 0.487828 11.1815 0.48739 10.915 0.536671ZM11.7631 1.34105C11.8818 1.51663 11.7345 2.34231 11.5191 2.70919C11.0014 3.59071 9.44261 4.05982 9.40737 3.34468C9.34871 2.15344 10.3573 1.18298 11.5504 1.28276C11.6653 1.29238 11.745 1.31421 11.7631 1.34105ZM7.42734 2.00326C8.20636 2.7877 8.19695 4.00996 7.40586 4.79423C7.02493 5.17189 6.9918 5.17078 6.68029 4.77001C5.99129 3.88363 6.18696 2.5225 7.08925 1.92484C7.25854 1.81273 7.23199 1.80658 7.42734 2.00326ZM5.23279 3.99274C6.19176 4.67559 6.0413 6.6314 4.98845 7.16877C4.72345 7.30402 4.15385 6.27023 4.15385 5.65409C4.15385 4.88107 4.88951 3.74829 5.23279 3.99274ZM10.1099 5.11401C10.657 5.22992 11.2983 5.70946 11.1893 5.92113C10.8914 6.4995 9.90024 6.93093 9.19023 6.79128C8.61838 6.67879 7.8987 6.18569 8.00405 5.97851C8.31818 5.36068 9.3244 4.94761 10.1099 5.11401ZM3.27505 6.22899C4.08639 7.08941 3.93738 8.54574 2.96992 9.21137C2.8159 9.31733 2.79562 9.3097 2.57008 9.06047C1.79316 8.20194 1.94793 6.7617 2.88488 6.13072C3.07364 6.00363 3.0591 5.99996 3.27505 6.22899ZM8.0153 7.21123C8.39323 7.30093 8.88169 7.58755 9.06401 7.82658C9.32682 8.17117 8.21064 8.91743 7.43244 8.91743C6.80359 8.91743 5.76473 8.35052 5.90304 8.08284C6.22604 7.45781 7.25881 7.03165 8.0153 7.21123ZM5.94399 9.31153C6.33448 9.41324 6.90084 9.7629 7.01223 9.97101C7.12571 10.1831 6.402 10.7861 5.84415 10.9444C5.15891 11.1388 4.0717 10.7871 3.80239 10.2839C3.56173 9.83419 5.16165 9.10777 5.94399 9.31153Z" fill="#5F773F"/>
</svg>
