<svg width="32" height="32" viewBox="0 0 32 32" fill="none" xmlns="http://www.w3.org/2000/svg">
<path d="M16.0625 8.75C14.6409 8.75 13.2513 9.17154 12.0693 9.96131C10.8874 10.7511 9.96612 11.8736 9.42212 13.187C8.87811 14.5003 8.73577 15.9455 9.01311 17.3397C9.29044 18.7339 9.97498 20.0146 10.9802 21.0198C11.9854 22.025 13.2661 22.7096 14.6603 22.9869C16.0545 23.2642 17.4997 23.1219 18.813 22.5779C20.1264 22.0339 21.2489 21.1126 22.0387 19.9307C22.8285 18.7487 23.25 17.3591 23.25 15.9375C23.2475 14.032 22.4895 12.2053 21.1421 10.8579C19.7947 9.51053 17.968 8.75248 16.0625 8.75ZM16.0625 21.25C15.0118 21.25 13.9847 20.9384 13.111 20.3547C12.2374 19.7709 11.5565 18.9412 11.1544 17.9705C10.7523 16.9998 10.6471 15.9316 10.8521 14.9011C11.0571 13.8706 11.563 12.924 12.306 12.181C13.049 11.438 13.9956 10.9321 15.0261 10.7271C16.0566 10.5221 17.1248 10.6273 18.0955 11.0294C19.0662 11.4315 19.8959 12.1124 20.4797 12.986C21.0634 13.8597 21.375 14.8868 21.375 15.9375C21.375 17.3465 20.8153 18.6977 19.819 19.694C18.8227 20.6903 17.4715 21.25 16.0625 21.25ZM23.5625 0H8.5625C6.3255 0.00248142 4.18083 0.892227 2.59903 2.47403C1.01723 4.05583 0.127481 6.2005 0.125 8.4375V23.4375C0.127481 25.6745 1.01723 27.8192 2.59903 29.401C4.18083 30.9828 6.3255 31.8725 8.5625 31.875H23.5625C25.7995 31.8725 27.9442 30.9828 29.526 29.401C31.1078 27.8192 31.9975 25.6745 32 23.4375V8.4375C31.9975 6.2005 31.1078 4.05583 29.526 2.47403C27.9442 0.892227 25.7995 0.00248142 23.5625 0ZM30.125 23.4375C30.125 25.178 29.4336 26.8472 28.2029 28.0779C26.9722 29.3086 25.303 30 23.5625 30H8.5625C6.82202 30 5.15282 29.3086 3.92211 28.0779C2.6914 26.8472 2 25.178 2 23.4375V8.4375C2 6.69702 2.6914 5.02782 3.92211 3.79711C5.15282 2.5664 6.82202 1.875 8.5625 1.875H23.5625C25.303 1.875 26.9722 2.5664 28.2029 3.79711C29.4336 5.02782 30.125 6.69702 30.125 8.4375V23.4375ZM25.75 7.8125C25.75 8.12153 25.6584 8.42363 25.4867 8.68058C25.315 8.93753 25.071 9.1378 24.7854 9.25606C24.4999 9.37432 24.1858 9.40527 23.8827 9.34498C23.5796 9.28469 23.3012 9.13587 23.0826 8.91735C22.8641 8.69883 22.7153 8.42042 22.655 8.11733C22.5947 7.81423 22.6257 7.50007 22.7439 7.21456C22.8622 6.92905 23.0625 6.68502 23.3194 6.51333C23.5764 6.34164 23.8785 6.25 24.1875 6.25C24.6019 6.25 24.9993 6.41462 25.2924 6.70765C25.5854 7.00067 25.75 7.3981 25.75 7.8125Z" fill="#FCF7F4"/>
</svg>
