<svg width="8" height="13" viewBox="0 0 8 13" fill="none" xmlns="http://www.w3.org/2000/svg">
<path d="M1.6768 0.508652C1.69527 0.508652 1.71375 0.508418 1.73269 0.508418C1.79489 0.508184 1.85709 0.50795 1.91952 0.50795C1.96395 0.507717 2.00838 0.507717 2.05281 0.507483C2.17393 0.507015 2.29506 0.506781 2.41596 0.506547C2.49172 0.506547 2.56725 0.506314 2.64278 0.506314C2.87942 0.505846 3.11583 0.505378 3.35223 0.505144C3.62536 0.505144 3.89848 0.504443 4.1716 0.503508C4.38252 0.502806 4.59367 0.502338 4.80459 0.502338C4.93063 0.502338 5.05667 0.502105 5.1827 0.501403C5.30149 0.500935 5.42005 0.500935 5.5386 0.501169C5.5821 0.501169 5.62559 0.500935 5.66932 0.500702C5.72871 0.500234 5.78811 0.500468 5.8475 0.500702C5.8648 0.500468 5.88187 0.500234 5.89964 0.5C6.01843 0.501403 6.08531 0.530866 6.17651 0.605694C6.27799 0.737344 6.2974 0.823161 6.29132 0.986379C6.29038 1.01631 6.28945 1.04624 6.28851 1.07687C6.28781 1.09301 6.28734 1.10891 6.28688 1.12528C6.2359 2.19601 6.2359 2.19601 6.70077 3.12528C6.795 3.24009 6.86702 3.36893 6.94138 3.49708C6.9809 3.56466 7.02182 3.6313 7.06275 3.69818C7.16072 3.85929 7.2587 4.0204 7.35598 4.18175C7.37094 4.2063 7.38567 4.23062 7.40087 4.25564C7.41444 4.27832 7.42823 4.30101 7.44226 4.32416C7.45419 4.34403 7.46611 4.36367 7.47827 4.38402C7.53603 4.48854 7.56199 4.57109 7.56222 4.69104C7.56269 4.73126 7.56269 4.73126 7.56292 4.77242C7.56269 4.80188 7.56269 4.83111 7.56269 4.86151C7.56269 4.89308 7.56292 4.92465 7.56292 4.95621C7.56339 5.04297 7.56339 5.12995 7.56339 5.21671C7.56339 5.31048 7.56386 5.40401 7.56409 5.49754C7.56456 5.70238 7.56479 5.90723 7.56479 6.11183C7.56503 6.23974 7.56503 6.36765 7.56526 6.49556C7.56573 6.84935 7.5662 7.20338 7.5662 7.55741C7.5662 7.58009 7.5662 7.60277 7.5662 7.62615C7.5662 7.67199 7.5662 7.71782 7.5662 7.76388C7.5662 7.78657 7.5662 7.80948 7.5662 7.83287C7.5662 7.86724 7.5662 7.86724 7.5662 7.90208C7.5662 8.27201 7.5669 8.6417 7.56783 9.01163C7.56877 9.39138 7.56923 9.77113 7.56923 10.1511C7.56923 10.3641 7.56947 10.5774 7.56994 10.7907C7.57064 10.9721 7.57087 11.1538 7.5704 11.3353C7.57017 11.4279 7.5704 11.5205 7.57087 11.6131C7.57134 11.6979 7.57134 11.7828 7.57064 11.8675C7.57064 11.9126 7.57111 11.9577 7.57157 12.0029C7.56994 12.1677 7.55661 12.2917 7.43922 12.4144C7.31459 12.5108 7.1668 12.4944 7.01598 12.4937C6.97295 12.4939 6.97295 12.4939 6.92899 12.4942C6.84925 12.4944 6.76975 12.4944 6.69001 12.4944C6.60419 12.4944 6.51814 12.4946 6.43232 12.4949C6.26396 12.4953 6.09583 12.4956 5.92747 12.4956C5.79068 12.4956 5.65388 12.4956 5.51709 12.4958C5.4778 12.4958 5.43829 12.4958 5.399 12.4958C5.36954 12.4958 5.36954 12.4958 5.33937 12.496C4.96851 12.4963 4.59765 12.4963 4.22678 12.4963C3.88749 12.496 3.54842 12.4965 3.20913 12.4974C2.86071 12.4981 2.5123 12.4984 2.16388 12.4984C1.96816 12.4984 1.77267 12.4984 1.57719 12.4991C1.41069 12.4995 1.2442 12.4995 1.07771 12.4991C0.992595 12.4988 0.907712 12.4988 0.82283 12.4993C0.730698 12.5 0.638567 12.4995 0.546436 12.4991C0.519778 12.4993 0.492887 12.4995 0.465294 12.5C0.331073 12.4984 0.231458 12.492 0.127869 12.4013C-0.000974603 12.2613 0.0165631 12.1011 0.0167969 11.921C0.0167969 11.8895 0.016563 11.8579 0.0163292 11.8263C0.0156277 11.7396 0.0156276 11.653 0.0153938 11.5665C0.0153938 11.473 0.0149263 11.3795 0.0144586 11.2859C0.0135233 11.0816 0.0130556 10.8772 0.0125879 10.6726C0.0125879 10.5449 0.0121202 10.4172 0.0118864 10.2893C0.0109511 9.93529 0.0102495 9.58126 0.0100157 9.22723C0.0100157 9.20455 0.0100157 9.18187 0.0100157 9.15848C0.0100157 9.1358 0.0100157 9.11312 0.0100157 9.08973C0.0100157 9.04367 0.0100156 8.9976 0.00978179 8.95154C0.00978179 8.92885 0.00978179 8.90594 0.00978179 8.88256C0.00954795 8.51309 0.00837884 8.14387 0.00674198 7.77441C0.00510513 7.39466 0.00416977 7.01514 0.00416977 6.63539C0.00393594 6.4226 0.00370206 6.20958 0.00229904 5.99655C0.0013637 5.81509 0.000896003 5.63364 0.00136367 5.45218C0.00183135 5.35982 0.00159754 5.26722 0.000662195 5.17485C-0.00331302 4.78341 0.0032344 4.46492 0.23707 4.13662C0.264195 4.09009 0.290853 4.04332 0.317042 3.99632C0.342063 3.95399 0.367083 3.91143 0.392104 3.86911C0.420398 3.82094 0.448692 3.77277 0.476986 3.7246C0.49125 3.70028 0.505748 3.67573 0.52048 3.65047C0.608168 3.50105 0.69422 3.3507 0.780506 3.20034C0.7936 3.17742 0.806929 3.15451 0.820492 3.13089C0.834288 3.10564 0.848318 3.08038 0.862816 3.05443C0.901633 2.98685 0.945828 2.92582 0.992829 2.86362C1.26852 2.48036 1.2587 2.12119 1.24701 1.66848C1.2435 1.52046 1.24303 1.37244 1.24186 1.22442C1.2414 1.17321 1.24023 1.12224 1.23906 1.07103C1.23251 0.743657 1.23251 0.743657 1.34873 0.61154C1.46705 0.523851 1.53229 0.508652 1.6768 0.508652ZM2.01422 1.28382C2.01422 1.56933 2.01422 1.85485 2.01422 2.14901C3.164 2.14901 4.31377 2.14901 5.49838 2.14901C5.49838 1.8635 5.49838 1.57798 5.49838 1.28382C4.34861 1.28382 3.19884 1.28382 2.01422 1.28382ZM1.85054 2.92067C1.73479 3.1213 1.61904 3.32193 1.49979 3.52864C1.46377 3.59061 1.42776 3.65281 1.39058 3.71688C1.37609 3.74167 1.36159 3.76669 1.34662 3.79241C1.31809 3.84152 1.28957 3.89062 1.2608 3.93996C1.24677 3.96405 1.23251 3.98837 1.21801 4.01362C1.20585 4.03443 1.19369 4.05548 1.18107 4.07722C1.1502 4.13475 1.12612 4.19251 1.10226 4.25354C1.53603 4.25845 1.96956 4.26219 2.40309 4.26429C2.60443 4.26546 2.80576 4.26687 3.00709 4.26944C3.18247 4.27154 3.35785 4.27271 3.53346 4.27318C3.62629 4.27365 3.71912 4.27411 3.81219 4.27575C3.89965 4.27715 3.9871 4.27762 4.07455 4.27739C4.12202 4.27739 4.16926 4.27856 4.21649 4.27973C4.36942 4.28183 4.36942 4.28183 4.49569 4.20747C4.53194 4.15392 4.56 4.10201 4.58642 4.04308C4.60045 4.01947 4.61448 3.99608 4.62875 3.97176C4.6402 3.95095 4.6519 3.93014 4.66359 3.90863C4.67668 3.88478 4.69001 3.86116 4.70334 3.83684C4.7169 3.81229 4.73046 3.78773 4.74426 3.76248C4.85206 3.5684 4.96103 3.37525 5.07514 3.18491C5.12682 3.09792 5.17241 3.0114 5.21778 2.92067C4.10659 2.92067 2.9954 2.92067 1.85054 2.92067ZM5.8959 3.31819C5.78273 3.46832 5.69247 3.63504 5.6008 3.79896C5.58771 3.82211 5.57461 3.84526 5.56105 3.86911C5.48973 3.99585 5.42355 4.12306 5.35808 4.25354C5.72848 4.25354 6.09887 4.25354 6.48049 4.25354C6.35516 4.03396 6.22865 3.81673 6.0963 3.6016C6.07923 3.57378 6.0624 3.54595 6.04532 3.51836C6.02942 3.4924 6.01329 3.46644 5.99692 3.43955C5.98266 3.41617 5.96816 3.39279 5.95343 3.3687C5.9422 3.3521 5.93098 3.33526 5.91929 3.31819C5.91157 3.31819 5.90385 3.31819 5.8959 3.31819ZM0.798277 5.04858C0.798277 7.24781 0.798277 9.44704 0.798277 11.7129C1.94805 11.7129 3.09782 11.7129 4.28243 11.7129C4.28243 9.51368 4.28243 7.31445 4.28243 5.04858C3.13266 5.04858 1.98289 5.04858 0.798277 5.04858ZM5.05409 5.04858C5.05409 7.24781 5.05409 9.44704 5.05409 11.7129C5.62512 11.7129 6.19615 11.7129 6.78448 11.7129C6.78448 9.51368 6.78448 7.31445 6.78448 5.04858C6.21345 5.04858 5.64243 5.04858 5.05409 5.04858Z" fill="#5F773F"/>
<path d="M3.12022 3.19902C3.22404 3.25981 3.29349 3.32552 3.34727 3.43496C3.38328 3.58157 3.37253 3.69826 3.30051 3.83248C3.21609 3.93957 3.11484 3.99593 2.98085 4.01838C2.85552 4.02118 2.7538 3.97255 2.64857 3.90847C2.55901 3.81354 2.52511 3.71439 2.51996 3.58555C2.52487 3.46886 2.55363 3.38725 2.63758 3.30261C2.77695 3.1782 2.93783 3.12699 3.12022 3.19902Z" fill="#5F773F"/>
</svg>
