<svg width="15" height="17" viewBox="0 0 15 17" fill="none" xmlns="http://www.w3.org/2000/svg">
<path d="M7.84766 0.682129C9.70417 0.682129 11.4846 1.37589 12.7974 2.6108C14.1102 3.84571 14.8477 5.52061 14.8477 7.26703C14.8477 10.0496 12.7692 13.082 8.66612 16.3968C8.43797 16.5811 8.14708 16.6824 7.84631 16.6821C7.54554 16.6819 7.25485 16.5801 7.02704 16.3954L6.75566 16.1739C2.83422 12.9456 0.847656 9.98744 0.847656 7.26703C0.847656 5.52061 1.58515 3.84571 2.89791 2.6108C4.21066 1.37589 5.99114 0.682129 7.84766 0.682129ZM7.84766 1.69519C6.27676 1.69519 4.7702 2.28222 3.65941 3.32715C2.54862 4.37207 1.92458 5.78929 1.92458 7.26703C1.92458 9.6322 3.75391 12.3573 7.46284 15.41L7.73063 15.6282C7.76319 15.6545 7.80471 15.669 7.84766 15.669C7.8906 15.669 7.93212 15.6545 7.96468 15.6282C11.8531 12.4863 13.7707 9.68825 13.7707 7.26703C13.7707 6.53533 13.6175 5.81079 13.3199 5.13478C13.0222 4.45878 12.5859 3.84454 12.0359 3.32715C11.4859 2.80975 10.8329 2.39933 10.1143 2.11932C9.3957 1.83931 8.62549 1.69519 7.84766 1.69519ZM7.84766 4.73438C8.5617 4.73438 9.2465 5.00121 9.75141 5.47618C10.2563 5.95114 10.54 6.59533 10.54 7.26703C10.54 7.93874 10.2563 8.58293 9.75141 9.05789C9.2465 9.53286 8.5617 9.79969 7.84766 9.79969C7.13361 9.79969 6.44881 9.53286 5.94391 9.05789C5.439 8.58293 5.15535 7.93874 5.15535 7.26703C5.15535 6.59533 5.439 5.95114 5.94391 5.47618C6.44881 5.00121 7.13361 4.73438 7.84766 4.73438ZM7.84766 5.74744C7.41923 5.74744 7.00835 5.90754 6.70541 6.19252C6.40246 6.4775 6.23227 6.86401 6.23227 7.26703C6.23227 7.67005 6.40246 8.05657 6.70541 8.34155C7.00835 8.62653 7.41923 8.78663 7.84766 8.78663C8.27608 8.78663 8.68696 8.62653 8.98991 8.34155C9.29285 8.05657 9.46304 7.67005 9.46304 7.26703C9.46304 6.86401 9.29285 6.4775 8.98991 6.19252C8.68696 5.90754 8.27608 5.74744 7.84766 5.74744Z" fill="#300D0C"/>
</svg>
