<svg width="140" height="57" viewBox="0 0 140 57" fill="none" xmlns="http://www.w3.org/2000/svg">
<path d="M2.60864 24.4642C2.65966 23.7159 2.47682 23.1886 2.34927 22.9037C2.08139 22.3085 1.6647 21.9003 1.41383 21.6537C0.85257 21.1052 0.584696 21.0882 0.321073 20.6119C0.265797 20.5141 0.0702065 20.1442 0.0617026 19.6212C0.0617026 19.4341 0.0446947 18.7878 0.478396 18.3201C0.546428 18.2436 0.712255 18.0863 1.57115 17.8014C2.14942 17.61 2.51084 17.5378 3.13163 17.3847C3.65462 17.2571 4.00328 17.1593 4.6921 16.968C5.61903 16.7086 6.0825 16.5811 6.61825 16.394C7.33683 16.1431 7.84707 15.9645 8.49337 15.6116C8.96109 15.3565 9.50534 15.0589 10.1049 14.5189C10.5088 14.1532 10.6704 13.9236 11.1466 13.6344C11.4527 13.4474 11.7546 13.2645 12.1883 13.2177C12.3329 13.2007 12.9962 13.1455 13.5915 13.5834C14.0209 13.8981 14.1953 14.3105 14.3186 14.6252C14.6545 15.4585 14.5907 16.2154 14.5779 16.3429C14.4844 17.5633 14.5227 25.9864 14.6077 37.6709C14.7268 37.6709 14.9053 37.6538 15.1052 37.5731C15.4794 37.4157 15.5814 37.1564 16.0321 36.6461C16.385 36.2464 16.3085 36.2847 16.6912 35.8553C16.9548 35.5576 17.0526 35.5449 17.4565 35.0601C17.8392 34.5967 17.8265 34.652 18.0518 34.3671C18.1283 34.2693 18.4728 33.8313 18.8427 33.1765C19.1148 32.7003 19.2509 32.4622 19.3402 32.1518C19.4167 31.8882 19.506 31.4375 19.438 30.8975C19.4082 30.6466 19.3784 30.4255 19.2381 30.1704C19.0893 29.894 18.9617 29.8642 18.6768 29.5113C18.4813 29.269 18.3154 29.0649 18.2134 28.7842C18.0135 28.2315 18.1751 27.7127 18.2134 27.5937C18.4345 26.9346 18.9575 26.6242 19.1063 26.5349C19.6038 26.2458 20.08 26.2586 20.6583 26.2713C21.2068 26.2841 21.3046 26.3691 22.4101 26.5349C22.8395 26.5987 23.2562 26.6625 23.7665 26.7008C24.5658 26.7603 25.1696 26.7348 25.8499 26.7008C26.2369 26.6838 26.9299 26.6455 27.8313 26.5349C28.0525 26.5094 28.7285 26.4201 29.6172 26.3691C30.0721 26.3436 30.3613 26.3393 30.7057 26.4669C31.1947 26.6497 31.4668 26.9814 31.5306 27.0622C31.5986 27.1472 31.8622 27.4959 31.926 28.0189C31.9388 28.1337 32.0025 28.7119 31.6624 29.2732C31.4625 29.6006 31.1989 29.7792 30.6717 30.1321C30.5739 30.1959 30.1742 30.4638 29.4811 30.7912C29.1325 30.957 28.7413 31.1143 27.9632 31.4205C27.4189 31.633 26.9639 31.8074 26.6748 31.9179C25.6713 32.2964 25.7564 32.2496 25.6161 32.3134C25.0761 32.56 25.008 32.7045 23.8983 33.5039C23.1499 34.0439 23.1032 34.0354 22.5419 34.4606C21.8191 35.0176 21.9381 35.0006 21.5852 35.2217C21.3811 35.3493 21.1898 35.4471 21.0239 35.6852C20.9389 35.8042 20.7561 36.0636 20.8241 36.3442C20.9006 36.6376 21.2153 36.7779 21.3513 36.8417C21.7085 36.999 21.9551 36.9268 22.4101 36.9395C22.8183 36.9523 23.1032 37.0203 23.5666 37.1394C24.5956 37.3987 25.3269 37.9047 25.5821 38.0961C25.7521 38.2236 26.1603 38.5425 26.8066 39.3504C27.691 40.4644 28.2013 41.4721 28.4266 41.9271C28.5925 42.2715 29.1154 43.3515 30.0126 45.9239C30.5994 47.6035 30.914 48.6835 31.5986 50.1206C31.96 50.8775 32.2492 51.375 32.6573 51.8725C33.3377 52.7016 33.8139 53.1268 33.8139 53.1268C34.1966 53.4669 34.3794 53.569 34.541 53.8879C34.6005 54.0069 34.8599 54.5555 34.6388 55.1422C34.4772 55.5674 34.154 55.7843 33.8777 55.9671C33.2824 56.3625 32.6956 56.4391 32.1939 56.4943C31.5093 56.5751 30.9736 56.5071 30.3443 56.4263C29.7277 56.3498 29.732 56.303 28.9879 56.1967C28.0567 56.0649 27.3466 56.0351 27.1723 56.0309C26.3347 56.0054 25.6926 56.0521 25.1569 56.0989C24.5658 56.1457 24.2087 56.1755 23.7027 56.2647C23.0394 56.3795 22.9161 56.4603 22.5121 56.4646C22.2698 56.4646 21.7043 56.4646 21.1898 56.1669C20.8369 55.9628 20.5732 55.6525 20.1013 54.615C19.7101 53.7646 19.5145 53.3394 19.3402 52.6676C17.7372 46.4937 15.6069 42.2077 15.4071 41.4679C15.3986 41.4381 15.3688 41.3105 15.2668 41.1957C15.2285 41.1532 15.1094 41.0214 14.9181 41.0044C14.765 40.9874 14.6502 41.0469 14.6035 41.0724C14.4504 44.3975 14.4972 46.9869 14.6375 48.3178C14.7225 49.1172 14.8841 49.84 14.9521 50.1547C15.2327 51.4132 15.4539 51.8002 15.5304 51.9235C15.709 52.2169 16.0109 52.6293 16.351 53.0077C16.6997 53.3947 16.8272 53.4627 16.9633 53.7433C17.2184 54.2706 17.1291 54.7893 17.1036 54.9169C17.0866 55.0104 16.9463 55.6525 16.368 56.0734C16.1384 56.2392 15.8663 56.354 15.0712 56.4391C13.9487 56.5624 13.0387 56.4986 12.605 56.4561C11.8864 56.3923 11.8992 56.3455 10.6449 56.1925C9.72219 56.0819 9.26298 56.0266 8.89305 56.0181C7.97463 55.9969 7.21352 56.1159 6.24833 56.2647C5.72108 56.3455 5.39368 56.4136 4.79415 56.4561C4.59431 56.4688 4.27116 56.4773 3.63761 56.4901C2.42155 56.5156 2.25997 56.5071 2.04312 56.4731C1.66045 56.4136 1.29903 56.354 0.903594 56.1074C0.682491 55.9671 0.287057 55.7205 0.0999704 55.2315C-0.112628 54.6788 0.0702065 54.1643 0.133986 53.9899C0.202018 53.7986 0.257293 53.7348 0.818554 52.9737C1.40958 52.1701 1.48611 52.0553 1.55415 51.9405C1.85178 51.4473 2.00486 51.0263 2.0984 50.7669C2.47257 49.721 2.51084 48.777 2.51934 48.4581C2.55761 47.0762 2.62139 37.5475 2.61289 24.4557L2.60864 24.4642Z" fill="#FCF7F4"/>
<path d="M82.3287 47.5699C82.2606 47.3573 81.946 46.3326 80.985 45.8776C80.36 45.5843 79.7392 45.6608 79.3693 45.7076C79.1652 45.7331 78.6635 45.8096 78.1235 46.0902C77.2731 46.5325 77.0094 47.1192 76.2228 48.1439C75.7424 48.7647 75.0238 49.7002 73.9948 50.4868C72.868 51.3457 71.8093 51.6943 71.5584 51.7751C70.9206 51.975 69.4027 52.4299 67.6593 51.9069C67.0471 51.7241 66.1414 51.4392 65.4908 50.5846C65.2995 50.3295 64.7212 49.5684 64.8956 48.6457C64.9211 48.5054 65.0231 48.0036 65.4526 47.6082C65.8012 47.2808 66.1924 47.1873 66.4688 47.1277C66.9068 47.0299 67.1959 47.0725 67.5828 47.0895C67.9145 47.1022 68.4034 47.0597 69.3857 46.9747C69.492 46.9662 70.9079 46.8343 72.2472 46.5495C73.3315 46.3199 75.2831 45.9074 77.3751 44.6106C78.3786 43.9898 79.5266 43.2627 80.5428 41.8468C81.7036 40.2268 82.0268 38.628 82.1373 37.9137C82.1969 37.4928 82.452 35.5921 81.6356 33.3428C81.4698 32.8879 80.9298 31.5017 79.6797 30.0986C78.115 28.3468 76.3674 27.6069 75.1471 27.1052C73.1359 26.276 71.4946 26.1145 69.8491 25.9529C67.3872 25.7105 65.4101 25.8976 64.1642 26.0847C62.5102 26.3356 61.511 26.6842 61.1538 26.816C60.0781 27.2072 59.2234 27.6707 58.6197 28.0449C57.8671 27.5984 56.7785 27.0371 55.3924 26.5864C53.0453 25.8253 51.1532 25.8126 49.1718 25.8168C45.4811 25.8253 42.8491 26.5397 42.0327 26.7778C39.388 27.5431 38.2442 28.368 37.8658 28.6571C37.0706 29.2652 35.8716 30.2049 35.3316 31.8631C35.119 32.5137 34.7193 33.8403 35.4847 35.3583C36.0544 36.4893 37.381 36.6636 37.7127 36.7231C38.7842 36.9102 39.6261 36.5276 40.0938 36.3192C40.9867 35.9153 41.5225 35.3498 42.3388 34.4739C43.1637 33.5894 43.0787 33.4746 43.9716 32.4414C45.0388 31.1998 45.5746 30.579 46.5228 30.1368C47.6963 29.5883 48.7763 29.6351 49.1548 29.6564C49.75 29.6904 50.4856 29.7329 51.2255 30.2346C51.4976 30.4132 52.2715 30.9362 52.4756 31.9227C52.6116 32.5817 52.4288 33.1302 52.3225 33.3811C52.1567 33.7638 51.8292 34.2655 50.7833 34.8778C49.6522 35.5454 48.636 35.7707 48.0195 35.9153C47.3817 36.0641 44.9325 36.6339 43.202 37.2036C42.3644 37.4757 40.957 37.9435 39.3242 38.8917C38.0103 39.6528 36.6369 40.4479 35.4251 42.0594C34.3706 43.4668 33.9539 44.8062 33.8136 45.3206C33.7286 45.6353 33.4182 46.8258 33.4862 48.4501C33.5458 49.798 33.6393 51.9069 35.1573 53.7693C36.4414 55.3425 38.0741 55.9208 38.6311 56.1122C39.8387 56.5203 40.8464 56.5331 41.4374 56.5331C42.0284 56.5373 43.4061 56.4863 44.9878 55.8825C46.2762 55.3893 47.3009 54.6792 47.6921 54.4029C48.2023 54.0457 48.7338 53.7225 49.2313 53.3484C49.7798 52.9359 50.1072 52.651 50.6685 52.5405C50.9023 52.498 51.3785 52.4044 51.7272 52.6766C51.9611 52.8594 52.0801 53.1145 52.1269 53.5184C52.2119 54.2073 52.1481 54.2923 52.263 54.7473C52.4373 55.4276 52.9305 55.8358 53.0113 55.8996C53.5385 56.3248 54.1253 56.363 54.6611 56.4013C55.1713 56.4353 55.4477 56.3715 56.3321 56.2482C56.3321 56.2482 57.0592 56.1462 58.271 56.0144C58.9981 55.9378 59.6104 55.9378 61.5152 56.0739C63.9729 56.2482 64.2067 56.3333 65.6056 56.4183C66.8472 56.4948 68.1398 56.5756 69.7896 56.4566C72.4513 56.2695 74.3775 55.6912 74.8792 55.5339C76.1463 55.1427 77.3156 54.777 78.6805 53.8841C79.6244 53.2633 81.0913 52.2769 81.9247 50.4273C82.2394 49.7299 82.6816 48.7095 82.3287 47.5699ZM52.4628 40.3203C52.4628 40.9028 52.433 41.3833 52.4118 41.9148C52.3522 43.5391 52.4033 43.9813 52.3097 45.125C52.2459 45.9032 51.8803 47.8761 50.2815 48.769C49.3333 49.3005 48.0237 49.4025 46.9182 48.82C45.481 48.0674 45.1536 46.5537 45.0431 46.0477C44.7029 44.4873 45.3152 43.2414 45.5066 42.863C45.97 41.9531 46.5866 41.3876 47.0203 41.0687C47.7516 40.5287 48.0535 40.3331 48.5297 40.0992C49.0102 39.8654 49.2908 39.7293 49.3589 39.691C49.8818 39.4104 50.273 39.2276 51.0256 38.9852C51.285 38.9044 51.6166 38.8109 51.9228 38.9597C52.1907 39.0915 52.3182 39.3381 52.3607 39.4232C52.5308 39.7633 52.4628 40.0907 52.4628 40.3203ZM67.3107 29.7627C69.1901 29.7627 70.7165 32.7731 70.7165 36.4893C70.7165 40.2055 69.1901 43.2117 67.3107 43.2117C65.4313 43.2117 63.9091 40.2013 63.9091 36.4893C63.9091 32.7773 65.4313 29.7627 67.3107 29.7627Z" fill="#FCF7F4"/>
<path d="M95.6629 31.9388C95.918 31.5009 96.2922 30.8886 96.7811 30.1743C97.1426 29.6513 97.3977 29.2814 97.6868 28.9369C98.7668 27.6486 100.076 27.0321 100.595 26.7939C101.909 26.1859 103.049 26.0541 103.669 25.9818C103.771 25.9691 104.29 25.9138 104.979 25.9095C105.532 25.9095 106.144 25.901 106.863 26.0286C107.619 26.1647 108.419 26.305 109.197 26.9088C109.444 27.1001 110.039 27.5721 110.366 28.4097C110.643 29.1113 110.583 29.7023 110.511 30.4592C110.426 31.3308 110.217 31.9431 109.796 33.1762C109.575 33.8267 109.673 33.4398 109.01 35.1533C108.908 35.417 108.738 35.8634 108.389 36.3694C108.117 36.7648 107.909 36.9519 107.696 37.0837C107.547 37.1773 107.309 37.3218 106.982 37.3473C106.884 37.3559 106.535 37.3686 106.004 37.0625C105.574 36.8116 105.413 36.5777 105.004 36.1568C105.004 36.1568 104.477 35.621 103.742 35.0598C103.117 34.5836 102.747 34.3072 102.168 34.1073C101.28 33.8012 100.506 33.8947 100.166 33.9415C99.3281 34.0521 98.7413 34.3625 98.5925 34.4432C97.7506 34.9025 97.2999 35.5275 96.947 36.0165C96.5133 36.6118 96.2751 37.1518 96.1603 37.4451C95.7989 38.3636 95.7351 39.1459 95.7096 39.5669C95.4375 43.5 95.6118 46.1744 95.6629 48.2154C95.6714 48.5173 95.6799 49.0233 95.8287 49.6696C95.8797 49.8864 95.9775 50.2308 96.2114 50.9069C96.458 51.634 96.4963 51.7445 96.5685 51.8849C96.7344 52.2123 96.9044 52.4334 97.1638 52.765C97.6698 53.4198 97.7718 53.3901 97.9249 53.7175C98.1928 54.283 98.1078 54.823 98.0907 54.908C98.0737 55.0101 97.9547 55.6351 97.4232 56.0773C96.9682 56.4557 96.4665 56.4855 95.5863 56.528C95.0081 56.5578 94.5403 56.5067 93.6304 56.409C92.627 56.2984 92.5674 56.2516 91.7723 56.1708C91.1728 56.1071 90.4202 56.0305 89.5315 56.0518C89.0681 56.0645 89.0043 56.0901 87.1504 56.3154C85.5687 56.5067 85.1435 56.545 84.578 56.5535C84.3271 56.5578 83.6 56.5663 82.6943 56.3622C81.963 56.2006 81.7376 56.0348 81.5973 55.9115C81.0573 55.414 81.0488 54.6954 81.0488 54.6231C81.0488 54.2702 81.1636 54.0151 81.2614 53.7897C81.44 53.3858 81.5888 53.2923 82.048 52.6927C82.4222 52.2038 82.6731 51.8721 82.8814 51.4044C83.0047 51.1322 83.0855 50.8771 83.1918 50.4052C83.481 49.1338 83.549 48.1899 83.549 48.1899C83.8679 43.8104 83.549 38.9716 83.6553 37.3048C83.6638 37.156 83.6978 36.701 83.5575 36.1355C83.5107 35.9357 83.3874 35.519 83.1068 35.0598C82.8942 34.7069 82.6816 34.49 82.2606 34.0521C81.7334 33.5036 81.6143 33.4738 81.4443 33.1932C81.355 33.0486 81.0999 32.5936 81.1424 31.9941C81.1551 31.8368 81.1806 31.5264 81.389 31.2032C81.5931 30.8886 81.861 30.7355 82.0693 30.6165C82.4222 30.4209 82.7156 30.3614 83.0387 30.2891C83.0387 30.2891 83.2556 30.2423 84.7438 29.8809C85.4411 29.7108 85.9556 29.5492 86.368 29.4174C86.8443 29.2643 87.4438 29.0773 88.1964 28.7626C89.2296 28.3332 89.7484 28.1163 90.3351 27.6699C91.0665 27.1171 91.4534 26.7429 91.4534 26.7429C91.7978 26.407 91.9339 26.2284 92.257 26.0754C92.746 25.8415 93.2775 25.8075 93.5241 25.8373C94.1874 25.9095 94.3192 25.9903 94.6722 26.322C94.7657 26.4113 95.0293 26.6451 95.2844 27.5338C95.497 28.2694 95.5396 28.8647 95.5693 29.3877C95.6076 30.0637 95.6459 30.9269 95.6544 31.9388H95.6629Z" fill="#FCF7F4"/>
<path d="M76.3037 4.66769C76.5971 4.54439 76.8905 4.42533 77.1796 4.30202L78.4254 7.31242C78.6848 7.23589 78.9782 7.13384 79.2928 6.98927C79.6075 6.84471 79.9221 6.71289 80.1943 6.48754C80.2836 6.411 80.3771 6.32171 80.4579 6.1899C80.4579 6.1899 80.5514 6.03683 80.6025 5.84124C80.6747 5.55636 80.7045 4.42108 80.6492 2.87336C80.9426 2.75856 81.2403 2.64801 81.5336 2.5332C81.5421 4.2595 81.5464 5.29699 81.5549 5.53085C81.5549 5.56486 81.5421 5.83274 81.5294 5.93478C81.5081 6.0836 81.4741 6.19841 81.3976 6.33872C81.338 6.45778 81.253 6.61085 81.1467 6.78518C82.3032 7.6866 83.464 8.58802 84.6206 9.48518C84.2889 9.62975 83.9615 9.77857 83.6299 9.92314C82.5711 9.07699 81.5124 8.2351 80.4494 7.38896C80.3303 7.46975 80.1645 7.5803 79.9519 7.69085C79.7691 7.78439 79.6288 7.84392 79.4374 7.92471C79.2716 7.99274 79.0505 8.08203 78.7784 8.17557C79.2036 9.23432 79.6245 10.2888 80.0497 11.3475C79.7563 11.4709 79.4629 11.5942 79.1738 11.7175C78.2171 9.36613 77.2604 7.01478 76.308 4.66344L76.3037 4.66769Z" fill="#FCF7F4"/>
<path d="M139.611 38.0751C139.492 37.501 139.343 36.6847 139.22 35.6387C136.72 36.0256 134.224 36.4125 131.724 36.7995C131.753 37.1226 131.779 37.4458 131.804 37.7732C132.727 37.6286 133.646 37.484 134.568 37.3437C134.602 37.6626 134.64 37.9815 134.683 38.3047C134.713 38.5428 134.743 38.7809 134.777 39.0147C133.99 39.7376 133.203 40.4604 132.421 41.1832C132.468 41.5957 132.515 42.0081 132.561 42.4248C133.399 41.6382 134.237 40.8516 135.078 40.0692C135.142 40.2691 135.3 40.6475 135.657 40.9749C136.141 41.4129 136.69 41.4851 136.966 41.5192C137.166 41.5404 137.71 41.5999 138.314 41.3193C138.416 41.2725 138.846 41.0684 139.22 40.6007C139.33 40.4604 139.547 40.1585 139.671 39.7418C139.853 39.1338 139.73 38.6321 139.611 38.0751ZM138.752 39.4314C138.633 39.8184 138.408 40.0437 138.361 40.0905C138.085 40.3584 137.783 40.4391 137.638 40.4732C137.477 40.5157 137.187 40.5922 136.839 40.4859C136.473 40.3754 136.26 40.133 136.167 40.0225C136.031 39.8609 135.946 39.6951 135.878 39.525C135.572 38.7469 135.453 37.3947 135.436 37.1821C136.452 37.0206 137.468 36.8632 138.489 36.7059C138.565 37.3437 138.65 37.854 138.705 38.1899C138.803 38.7469 138.871 39.0403 138.752 39.4314Z" fill="#FCF7F4"/>
<path d="M90.8752 0.662109C90.5733 0.683369 90.2714 0.700377 89.9695 0.721637C89.2297 3.36211 88.4898 5.99834 87.75 8.63881L88.7705 8.56228C88.9278 7.967 89.0809 7.36747 89.2382 6.76795C90.4628 6.62763 91.6916 6.48732 92.9162 6.34275C93.201 6.8785 93.4817 7.41425 93.7665 7.94999C94.1195 7.92448 94.4766 7.90322 94.8295 7.87771C93.5114 5.47109 92.1933 3.06873 90.8752 0.662109ZM89.4721 5.80275C89.8377 4.55267 90.2034 3.30259 90.5648 2.05251L92.4782 5.48385C91.4747 5.59015 90.4755 5.69645 89.4721 5.80275Z" fill="#FCF7F4"/>
<path d="M136.014 26.3398C133.275 26.3994 130.537 26.4589 127.799 26.5184C127.918 26.8373 128.041 27.1562 128.165 27.4751C128.781 27.4539 129.402 27.4283 130.018 27.4028C130.512 28.5339 131.005 29.6649 131.494 30.8002C131.064 31.2254 130.635 31.6506 130.205 32.0758C130.333 32.4074 130.461 32.7433 130.584 33.075C132.502 31.1148 134.419 29.1504 136.337 27.1902C136.226 26.9054 136.12 26.6247 136.014 26.3398ZM132.2 30.1241C131.804 29.1929 131.409 28.266 131.018 27.3391C132.319 27.3221 133.62 27.3093 134.925 27.2923C134.015 28.2362 133.105 29.1802 132.2 30.1241Z" fill="#FCF7F4"/>
<path d="M98.7754 8.10292C99.1241 5.58575 99.4727 3.07283 99.8171 0.555664C101.263 0.764011 102.713 0.968106 104.158 1.17645C104.112 1.49535 104.069 1.81 104.022 2.12889C102.887 1.96732 101.752 1.80574 100.621 1.64417C100.514 2.49031 100.408 3.33646 100.302 4.18685C101.327 4.33992 102.347 4.48874 103.372 4.64181C103.334 4.93945 103.291 5.23709 103.253 5.53473C102.215 5.39441 101.178 5.2541 100.136 5.10953C100 6.16402 99.8639 7.21851 99.7278 8.26875C99.4089 8.21347 99.0943 8.1582 98.7754 8.10292Z" fill="#FCF7F4"/>
<path d="M107.355 9.93179C108.287 7.56769 109.214 5.2036 110.145 2.84375C111.501 3.38375 112.862 3.928 114.218 4.468C114.099 4.76564 113.98 5.06328 113.861 5.36092C112.798 4.93572 111.731 4.51478 110.668 4.08958C110.366 4.88895 110.064 5.68407 109.762 6.48344C110.723 6.87037 111.68 7.2573 112.641 7.64848C112.53 7.92911 112.424 8.20974 112.313 8.48612C111.335 8.10344 110.362 7.72502 109.384 7.34234C109.005 8.33305 108.623 9.32801 108.244 10.3187C107.946 10.1912 107.653 10.0636 107.355 9.93179Z" fill="#FCF7F4"/>
<path d="M115.218 13.6301C116.71 11.5594 118.203 9.48868 119.699 7.41797C120.937 8.32364 122.178 9.22506 123.416 10.1307C123.237 10.3816 123.058 10.6325 122.88 10.8833C121.889 10.1732 120.898 9.46742 119.903 8.75734C119.436 9.41215 118.972 10.0627 118.505 10.7175C119.423 11.3638 120.346 12.0059 121.264 12.6522C121.085 12.886 120.907 13.1241 120.728 13.358L118.016 11.4106C117.527 12.0951 117.038 12.7797 116.544 13.4643L119.614 15.6753C119.427 15.9262 119.24 16.177 119.053 16.4279C117.773 15.4967 116.498 14.5655 115.218 13.6301Z" fill="#FCF7F4"/>
<path d="M130.75 18.2653C130.716 17.9379 130.606 17.6786 130.555 17.5595C130.483 17.3937 130.398 17.2406 130.279 17.0748C130.006 16.6836 129.241 15.7524 128.182 14.5576C126.239 16.1776 124.3 17.7976 122.361 19.4219C123.373 20.825 124.224 21.82 124.653 22.1857C124.934 22.4238 125.231 22.5811 125.231 22.5811C125.448 22.6916 125.691 22.8192 126.031 22.8532C126.52 22.9042 126.894 22.7299 127.068 22.6449C127.4 22.4876 127.604 22.2792 127.749 22.1346C127.906 21.9731 128.05 21.8285 128.157 21.5819C128.267 21.3183 128.272 21.0844 128.272 20.9398C128.276 20.6592 128.212 20.4253 128.157 20.2723C128.25 20.3148 128.386 20.3701 128.561 20.4041C128.88 20.4636 129.126 20.4168 129.19 20.4041C129.428 20.3531 129.59 20.2595 129.73 20.1787C129.96 20.0469 130.287 19.8258 130.512 19.4729C130.853 18.9457 130.767 18.4312 130.75 18.2653ZM127.306 21.1779C127.2 21.3778 127.064 21.4883 126.945 21.5819C126.843 21.6669 126.69 21.786 126.452 21.8498C126.358 21.8753 126.099 21.9475 125.784 21.8455C125.499 21.752 125.372 21.6116 125.21 21.4543C124.67 20.825 124.185 20.2255 123.645 19.5962C124.292 19.052 124.938 18.5034 125.584 17.9592C126.048 18.5162 126.477 19.0264 126.941 19.5835C127.039 19.711 127.141 19.8428 127.23 20.0086C127.315 20.183 127.408 20.3573 127.421 20.6082C127.425 20.6932 127.434 20.9228 127.306 21.1779ZM129.764 18.682C129.7 18.9116 129.577 19.0562 129.505 19.1412C129.415 19.2433 129.241 19.4431 128.931 19.5367C128.612 19.6345 128.344 19.5537 128.293 19.5367C128.016 19.4474 127.868 19.2943 127.698 19.1327C127.192 18.5375 126.779 18.006 126.273 17.4149C126.885 16.9047 127.498 16.3945 128.106 15.8885C128.284 16.0798 128.888 16.7431 129.424 17.4192C129.517 17.5383 129.662 17.7338 129.764 18.091C129.794 18.2016 129.836 18.4184 129.764 18.682Z" fill="#FCF7F4"/>
</svg>
