<svg width="11" height="13" viewBox="0 0 11 13" fill="none" xmlns="http://www.w3.org/2000/svg">
<path fill-rule="evenodd" clip-rule="evenodd" d="M8.25666 0.507394C8.02774 0.547739 7.84013 0.696273 7.63693 0.998021C7.41058 1.33414 7.2448 1.46451 6.59263 1.81919C5.24096 2.55428 4.463 3.40721 4.01554 4.64462C3.68686 5.55354 3.26502 6.10752 2.46154 6.68537C1.15181 7.62732 0.572523 8.75612 0.575205 10.3611C0.57838 12.2666 1.6017 12.8778 3.78646 12.279C5.42692 11.8294 6.47717 10.9357 7.30817 9.28224C7.82757 8.24877 8.23144 7.65397 8.88542 6.95941C9.86317 5.92099 10.2702 4.92572 10.2168 3.70364C10.1505 2.18363 9.03802 0.369635 8.25666 0.507394ZM8.75879 1.69211C9.66615 2.91656 9.73614 4.51936 8.93652 5.76204C8.79805 5.97722 8.69381 6.10274 8.36993 6.44425C7.68174 7.16988 7.18874 7.89752 6.64029 8.99703C5.87238 10.5365 4.84243 11.3332 3.17153 11.6804C1.74334 11.9771 1.31952 11.6668 1.32145 10.3258C1.3235 8.91397 1.7428 8.1024 2.90719 7.25657C3.80213 6.6065 4.30534 5.9531 4.67108 4.9663C5.10743 3.78892 5.69599 3.13605 6.92828 2.46247C7.13042 2.35197 7.37832 2.20892 7.47915 2.14456C7.94882 1.84486 7.43168 2.50519 6.62935 3.2297C5.3643 4.37205 4.95507 5.02878 4.72892 6.27958C4.62953 6.82925 4.52104 6.99392 4.02801 7.34338C2.89256 8.14817 2.05064 9.28074 2.3072 9.65828C2.50772 9.95337 2.78103 9.86805 3.03725 9.43038C3.41708 8.78157 3.72629 8.44882 4.38598 7.97887C5.12235 7.45432 5.24322 7.28014 5.45898 6.43249C5.78303 5.15946 6.21118 4.4345 6.96648 3.87989C7.06999 3.80388 7.21283 3.69873 7.28392 3.64622C7.91132 3.18269 8.38282 2.48364 8.55817 1.75699C8.62072 1.49787 8.61597 1.4994 8.75879 1.69211ZM8.13607 3.78981C7.99796 3.85789 7.95877 3.94223 7.94178 4.20787C7.92367 4.49164 7.86963 4.63211 7.7195 4.78577C7.55528 4.95388 7.52178 5.1126 7.61985 5.2581C7.81146 5.54244 8.10163 5.49805 8.36936 5.14346C8.871 4.47904 8.704 3.5099 8.13607 3.78981ZM6.35193 6.54816C6.29857 6.57239 6.23506 6.62068 6.21078 6.65547C6.1865 6.69027 6.12042 6.77743 6.06394 6.84915C5.90056 7.05661 5.88748 7.22096 6.02251 7.36982C6.24715 7.61749 6.59656 7.47455 6.80564 7.04946C6.96434 6.72685 6.67134 6.4031 6.35193 6.54816ZM9.66999 8.02653C9.36502 8.13554 9.19446 8.33421 8.78805 9.05389C8.54888 9.47745 8.47911 9.55059 8.01054 9.86894C7.17747 10.435 7.06194 10.8239 7.58456 11.3028C8.78476 12.4025 10.9323 11.2627 10.9323 9.52596C10.9323 8.62036 10.256 7.81704 9.66999 8.02653ZM9.95343 8.81196C10.7619 9.7728 9.4545 11.4421 8.30547 10.9161C7.97119 10.763 7.97044 10.7652 8.47205 10.4304C9.00189 10.0768 9.12977 9.93048 9.5298 9.22014C9.79356 8.75174 9.85385 8.69364 9.95343 8.81196ZM4.19381 9.00816C4.06346 9.05382 3.97358 9.15062 3.9333 9.28871C3.86304 9.52975 3.71742 9.69679 3.49429 9.79244C3.18289 9.92592 3.1657 10.3121 3.46469 10.4568C3.93653 10.6852 4.88875 9.59415 4.59632 9.1602C4.50013 9.01748 4.33995 8.95697 4.19381 9.00816Z" fill="#5F773F"/>
</svg>
