<svg width="17" height="17" viewBox="0 0 17 17" fill="none" xmlns="http://www.w3.org/2000/svg">
<g clip-path="url(#clip0_778_3527)">
<path d="M4.28541 5.93213C4.37697 7.20307 5.31978 8.18213 6.34791 8.18213C7.37603 8.18213 8.32041 7.20338 8.41041 5.93213C8.50416 4.60994 7.58634 3.68213 6.34791 3.68213C5.10947 3.68213 4.19166 4.634 4.28541 5.93213Z" stroke="#300D0C" stroke-width="0.8" stroke-linecap="round" stroke-linejoin="round"/>
<path d="M6.34778 10.1821C8.38434 10.1821 10.3428 11.1937 10.8334 13.1637C10.8984 13.4243 10.735 13.6821 10.4672 13.6821H2.22809C1.96028 13.6821 1.79778 13.4243 1.86184 13.1637C2.35247 11.1621 4.31091 10.1821 6.34778 10.1821Z" stroke="#300D0C" stroke-width="0.8" stroke-miterlimit="10"/>
<path d="M10.5974 6.49275C10.6705 7.50775 11.4324 8.30713 12.2536 8.30713C13.0749 8.30713 13.838 7.50807 13.9099 6.49275C13.9845 5.43682 13.243 4.68213 12.2536 4.68213C11.2642 4.68213 10.5227 5.45619 10.5974 6.49275Z" stroke="#300D0C" stroke-width="0.8" stroke-linecap="round" stroke-linejoin="round"/>
<path d="M10.4099 10.2445C10.9739 9.98609 11.5952 9.88672 12.2536 9.88672C13.8786 9.88672 15.4442 10.6945 15.8364 12.268C15.888 12.4761 15.7574 12.682 15.5436 12.682H12.0349" stroke="#300D0C" stroke-width="0.8" stroke-miterlimit="10" stroke-linecap="round"/>
</g>
<defs>
<clipPath id="clip0_778_3527">
<rect width="16" height="16" fill="white" transform="matrix(-1 0 0 1 16.8477 0.682129)"/>
</clipPath>
</defs>
</svg>
