<svg width="15" height="15" viewBox="0 0 15 15" fill="none" xmlns="http://www.w3.org/2000/svg">
<path d="M9.90182 9.90188C10.5749 9.8975 11.5018 9.73312 12.2287 9.00625C13.5237 7.71125 13.0343 5.78313 13.0343 5.78313C13.0343 5.78313 12.0249 5.52688 10.9762 5.87625C10.998 5.71194 11.0088 5.54637 11.0087 5.38063C11.0087 3.12688 9.0062 1.875 9.0062 1.875C9.0062 1.875 7.75432 2.6575 7.22995 4.09813C5.48432 2.8775 3.3662 3.36625 3.3662 3.36625C3.3662 3.36625 2.87745 5.485 4.09807 7.23C2.65745 7.75437 1.87495 9.00625 1.87495 9.00625C1.87495 9.00625 3.12682 11.0088 5.38057 11.0088C5.54632 11.0089 5.71189 10.998 5.8762 10.9763C5.52745 12.025 5.78307 13.0344 5.78307 13.0344C5.78307 13.0344 7.7112 13.5238 9.0062 12.2281M13.1249 13.125L6.87495 6.875" stroke="#5F773F" stroke-width="0.8" stroke-linecap="round" stroke-linejoin="round"/>
</svg>
