<svg width="37" height="36" viewBox="0 0 37 36" fill="none" xmlns="http://www.w3.org/2000/svg">
<path d="M26.4436 22.8018C24.6998 25.8182 21.8047 27.5479 18.5 27.5479C15.1953 27.5479 12.3002 25.8182 10.5565 22.8018C10.4304 22.5607 10.4023 22.2803 10.4781 22.019C10.5539 21.7578 10.7277 21.5359 10.9632 21.3998C11.1987 21.2636 11.4777 21.2238 11.7419 21.2885C12.0061 21.3532 12.2351 21.5175 12.3811 21.7471C13.7592 24.1271 15.9318 25.4385 18.5 25.4385C21.0682 25.4385 23.2461 24.1271 24.619 21.7471C24.6849 21.621 24.7756 21.5096 24.8857 21.4196C24.9958 21.3295 25.123 21.2627 25.2596 21.223C25.3962 21.1834 25.5395 21.1718 25.6807 21.189C25.8219 21.2061 25.9582 21.2516 26.0813 21.3228C26.2045 21.394 26.3119 21.4894 26.3973 21.6032C26.4826 21.717 26.5441 21.8469 26.5779 21.985C26.6117 22.1232 26.6173 22.2668 26.5942 22.4071C26.5711 22.5475 26.5199 22.6817 26.4436 22.8018ZM36.4297 18.0557C36.4297 21.6018 35.3781 25.0683 33.408 28.0169C31.4379 30.9654 28.6376 33.2635 25.3614 34.6205C22.0852 35.9776 18.4801 36.3327 15.0021 35.6408C11.5241 34.949 8.32932 33.2414 5.8218 30.7339C3.31429 28.2264 1.60666 25.0316 0.914835 21.5536C0.223014 18.0756 0.578081 14.4705 1.93514 11.1943C3.29219 7.91805 5.59028 5.11781 8.53881 3.14767C11.4873 1.17753 14.9539 0.125977 18.5 0.125977C23.2535 0.131559 27.8108 2.02237 31.172 5.38363C34.5333 8.74489 36.4241 13.3021 36.4297 18.0557ZM34.3203 18.0557C34.3203 14.9267 33.3925 11.868 31.6541 9.26637C29.9158 6.66473 27.445 4.637 24.5542 3.4396C21.6634 2.2422 18.4825 1.9289 15.4136 2.53933C12.3448 3.14976 9.52587 4.6565 7.31336 6.86901C5.10085 9.08152 3.59411 11.9004 2.98368 14.9693C2.37325 18.0381 2.68654 21.2191 3.88394 24.1098C5.08135 27.0006 7.10908 29.4714 9.71071 31.2098C12.3124 32.9481 15.371 33.876 18.5 33.876C22.6944 33.8713 26.7156 32.2031 29.6815 29.2372C32.6474 26.2713 34.3157 22.25 34.3203 18.0557ZM12.1719 16.2979C12.5195 16.2979 12.8594 16.1948 13.1485 16.0016C13.4375 15.8085 13.6628 15.5339 13.7959 15.2127C13.9289 14.8915 13.9637 14.5381 13.8959 14.1971C13.8281 13.8561 13.6607 13.5429 13.4148 13.2971C13.169 13.0512 12.8558 12.8838 12.5148 12.816C12.1738 12.7482 11.8204 12.783 11.4992 12.916C11.178 13.0491 10.9035 13.2744 10.7103 13.5635C10.5172 13.8525 10.4141 14.1924 10.4141 14.54C10.4141 15.0062 10.5993 15.4533 10.9289 15.783C11.2586 16.1127 11.7057 16.2979 12.1719 16.2979ZM24.8281 12.7822C24.4805 12.7822 24.1406 12.8853 23.8515 13.0785C23.5625 13.2716 23.3372 13.5462 23.2041 13.8674C23.0711 14.1886 23.0363 14.542 23.1041 14.883C23.1719 15.224 23.3393 15.5372 23.5852 15.783C23.831 16.0288 24.1442 16.1963 24.4852 16.2641C24.8262 16.3319 25.1796 16.2971 25.5008 16.164C25.822 16.031 26.0965 15.8057 26.2897 15.5166C26.4829 15.2276 26.5859 14.8877 26.5859 14.54C26.5859 14.0738 26.4007 13.6267 26.0711 13.2971C25.7414 12.9674 25.2943 12.7822 24.8281 12.7822Z" fill="#FCF7F4"/>
</svg>
