<svg width="12" height="12" viewBox="0 0 12 12" fill="none" xmlns="http://www.w3.org/2000/svg">
<path fill-rule="evenodd" clip-rule="evenodd" d="M1.10642 0.0476987C1.01906 0.100965 0.959229 0.21106 0.798445 0.614483C0.392772 1.63233 0.111372 2.80691 0.019743 3.86486C-0.0205642 4.33015 0.00404198 5.36722 0.0645965 5.75473C0.163958 6.39067 0.31975 6.93927 0.549009 7.46033C1.28572 9.13489 2.92282 10.641 5.14218 11.6859C5.61452 11.9083 5.8599 12 5.98275 12C6.11843 12 6.48506 11.8559 7.02516 11.5903C9.14981 10.5454 10.694 9.09256 11.4221 7.45372C11.6478 6.94555 11.8046 6.38837 11.9099 5.71988C11.9533 5.44425 11.9598 5.30303 11.96 4.62988C11.9603 3.96366 11.9532 3.80461 11.9091 3.48159C11.7999 2.68248 11.6381 1.97298 11.4029 1.2623C11.2651 0.845898 11.0615 0.322959 10.9823 0.182048C10.8696 -0.0186207 10.6765 -0.0496713 10.3534 0.0808584C9.25855 0.52316 8.18488 1.16498 7.28001 1.91809C6.87225 2.25747 6.38917 2.75276 6.05492 3.17408L5.98345 3.26421L5.80685 3.04482C4.8851 1.89958 3.31589 0.780212 1.70247 0.116994C1.38259 -0.0144963 1.23629 -0.0315097 1.10642 0.0476987ZM2.14257 1.12828C4.27286 2.20767 5.72272 3.69205 6.26644 5.35034C6.4766 5.99128 6.56861 6.61627 6.56746 7.39514C6.56638 8.13829 6.4692 8.88468 6.26886 9.68836C6.17866 10.0502 5.99707 10.6408 5.976 10.6408C5.9685 10.6408 5.26751 8.96142 4.4182 6.90887C3.56889 4.8563 2.85517 3.14531 2.83213 3.10664C2.77235 3.00627 2.66218 2.9489 2.52924 2.9489C2.31852 2.9489 2.17156 3.09431 2.17316 3.30126C2.17386 3.39249 2.43297 4.03588 3.68976 7.06706C4.52344 9.07773 5.22539 10.773 5.2497 10.8342L5.29387 10.9455L5.05397 10.8254C4.47245 10.5342 3.79983 10.1038 3.27914 9.68979C2.90091 9.38906 2.25686 8.753 1.99618 8.42276C1.24675 7.47329 0.860125 6.50423 0.746702 5.29091C0.711082 4.91004 0.730298 3.95968 0.781502 3.56924C0.891339 2.73185 1.13532 1.76542 1.42583 1.01685L1.50019 0.825253L1.62219 0.875824C1.68928 0.903664 1.92346 1.01725 2.14257 1.12828ZM10.6756 1.39593C11.3582 3.39898 11.4327 5.3454 10.8837 6.83463C10.6898 7.36053 10.3627 7.92792 9.95924 8.43797C9.7132 8.74906 9.08624 9.37385 8.75588 9.63716C8.37285 9.94246 7.9934 10.2067 7.59107 10.4483C7.15812 10.7083 6.66504 10.9637 6.68255 10.9189C6.68941 10.9013 7.47304 9.00977 8.42393 6.71554C10.2901 2.21313 10.2114 2.42205 10.1047 2.24962C9.97984 2.04801 9.68435 2.02692 9.52202 2.20805C9.49496 2.23828 8.98877 3.43343 8.39717 4.86396L7.32158 7.46495L7.29449 7.01407C7.2629 6.48858 7.23562 6.2622 7.15543 5.86018C7.03744 5.26879 6.86147 4.76559 6.5826 4.22233L6.42153 3.90852L6.58382 3.69355C7.37072 2.65119 8.66388 1.66008 10.122 0.981794L10.4618 0.823729L10.5048 0.922341C10.5284 0.976592 10.6053 1.1897 10.6756 1.39593Z" fill="#5F773F"/>
</svg>
