<svg width="12" height="12" viewBox="0 0 12 12" fill="none" xmlns="http://www.w3.org/2000/svg">
<path fill-rule="evenodd" clip-rule="evenodd" d="M0.468771 0.0187671C0.214239 0.036752 0.120844 0.0751603 0.0489753 0.191464C-0.00282205 0.275245 -0.0156014 0.421492 0.0206028 0.516013C0.0320222 0.545862 0.154329 0.681089 0.292369 0.816503C0.727406 1.24326 1.01765 1.6431 1.3086 2.21653C1.64534 2.88021 1.83733 3.42347 2.2991 5.01903C2.79201 6.72227 3.06166 7.42964 3.48146 8.12066C4.23167 9.35557 5.25359 10.1056 6.48327 10.3237C7.58262 10.5187 8.85519 10.2016 9.8554 9.48324C9.95613 9.41088 10.0468 9.3517 10.0569 9.3517C10.076 9.3517 10.3129 9.83553 10.4816 10.2193C10.6255 10.5465 10.8817 11.1968 10.9989 11.5324C11.0696 11.7349 11.1241 11.8504 11.1751 11.9063C11.2419 11.9793 11.2635 11.9879 11.3997 11.9966C11.5368 12.0053 11.5573 12.0004 11.6263 11.9424C11.7244 11.8599 11.7709 11.7679 11.7708 11.6567C11.7705 11.4335 11.2198 10.0538 10.7817 9.17886L10.5951 8.80612L10.676 8.72134C10.8045 8.58684 11.0092 8.31001 11.1384 8.09611C11.7676 7.05451 11.9098 5.89931 11.5438 4.80272C11.3126 4.11013 10.9023 3.4891 10.2628 2.8638C9.20933 1.83367 7.68847 1.03884 5.7681 0.514746C4.92318 0.284155 3.65425 0.084399 2.62602 0.0200802C2.20843 -0.00604125 0.831681 -0.00688539 0.468771 0.0187671ZM3.01292 0.733871C5.89952 1.01584 8.32764 1.95851 9.77246 3.35816C10.446 4.01066 10.8546 4.71756 11.0005 5.48272C11.0442 5.71195 11.0382 6.29753 10.9895 6.54282C10.8885 7.05235 10.6051 7.65948 10.2869 8.04825L10.231 8.11653L10.1058 7.90756C9.37701 6.69097 8.45863 5.56573 7.4212 4.61818C6.61617 3.88294 5.86407 3.32773 4.89326 2.75214L4.54601 2.54624L4.40704 2.5563C4.24327 2.56814 4.17215 2.62146 4.11278 2.77697C4.06765 2.89515 4.08157 3.01019 4.15185 3.09955C4.1779 3.13266 4.34382 3.24645 4.52055 3.35242C5.69749 4.05812 6.65606 4.81217 7.56049 5.74368C8.29414 6.49928 8.93793 7.34023 9.52686 8.31219L9.72817 8.6444L9.56476 8.78115C9.11849 9.15464 8.54745 9.43527 7.93707 9.58107C7.69878 9.638 7.63986 9.64267 7.16327 9.64232C6.66211 9.64196 6.63972 9.6399 6.37775 9.56993C5.92696 9.4495 5.53743 9.25947 5.16461 8.97814C4.94081 8.80924 4.53321 8.39318 4.3562 8.15288C3.80908 7.4102 3.5488 6.76363 2.92142 4.58864C2.47743 3.04944 2.27122 2.48546 1.87952 1.73877C1.71707 1.42911 1.43681 0.998696 1.25753 0.783488L1.16167 0.668427L1.89971 0.682824C2.30562 0.69075 2.80657 0.713705 3.01292 0.733871Z" fill="#5F773F"/>
</svg>
