<svg xmlns="http://www.w3.org/2000/svg" version="1.1" xmlns:xlink="http://www.w3.org/1999/xlink" width="73" height="29"><svg width="73" height="29" viewBox="0 0 73 29" fill="none" xmlns="http://www.w3.org/2000/svg">
<path d="M1.3509 12.3814C1.37733 11.9939 1.28264 11.7208 1.21659 11.5733C1.07787 11.265 0.862077 11.0536 0.732164 10.9259C0.44151 10.6419 0.30279 10.6331 0.16627 10.3865C0.137645 10.3358 0.036357 10.1443 0.0319532 9.87342C0.0319532 9.77653 0.0231455 9.44184 0.247741 9.19963C0.282972 9.15999 0.368847 9.07852 0.813635 8.931C1.1131 8.83191 1.30026 8.79448 1.62174 8.71521C1.89258 8.64915 2.07313 8.5985 2.42985 8.49942C2.90986 8.3651 3.14987 8.29904 3.42732 8.20216C3.79944 8.07225 4.06367 7.97977 4.39836 7.79701C4.64057 7.66489 4.92242 7.51076 5.23289 7.23111C5.44207 7.04175 5.52575 6.92284 5.77236 6.77311C5.9309 6.67623 6.08724 6.58155 6.31183 6.55732C6.3867 6.54852 6.7302 6.51989 7.03847 6.74669C7.26086 6.90963 7.35114 7.12322 7.41499 7.28616C7.58895 7.71774 7.55592 8.10968 7.54931 8.17574C7.50087 8.80769 7.52069 13.1697 7.56472 19.2206C7.62638 19.2206 7.71886 19.2118 7.82235 19.1699C8.01612 19.0885 8.06897 18.9541 8.30237 18.6899C8.48513 18.4829 8.44549 18.5027 8.64367 18.2804C8.78019 18.1262 8.83083 18.1196 9.04001 17.8686C9.23819 17.6286 9.23158 17.6572 9.34828 17.5097C9.38792 17.459 9.56627 17.2322 9.75784 16.8931C9.89876 16.6465 9.96922 16.5232 10.0155 16.3625C10.0551 16.226 10.1013 15.9926 10.0661 15.7129C10.0507 15.583 10.0353 15.4685 9.96262 15.3364C9.88555 15.1933 9.81949 15.1778 9.67196 14.9951C9.57067 14.8696 9.4848 14.7639 9.43195 14.6186C9.32846 14.3323 9.41214 14.0637 9.43195 14.002C9.54645 13.6607 9.81729 13.5 9.89436 13.4537C10.152 13.304 10.3986 13.3106 10.6981 13.3172C10.9821 13.3238 11.0328 13.3679 11.6053 13.4537C11.8276 13.4868 12.0434 13.5198 12.3077 13.5396C12.7216 13.5704 13.0343 13.5572 13.3866 13.5396C13.587 13.5308 13.9459 13.511 14.4127 13.4537C14.5272 13.4405 14.8773 13.3943 15.3375 13.3679C15.5731 13.3547 15.7228 13.3525 15.9012 13.4185C16.1544 13.5132 16.2953 13.6849 16.3284 13.7268C16.3636 13.7708 16.5001 13.9514 16.5331 14.2222C16.5398 14.2817 16.5728 14.5811 16.3966 14.8718C16.2931 15.0413 16.1566 15.1338 15.8836 15.3166C15.8329 15.3496 15.626 15.4883 15.267 15.6579C15.0865 15.7437 14.8839 15.8252 14.481 15.9837C14.1991 16.0938 13.9635 16.1841 13.8138 16.2414C13.2941 16.4373 13.3382 16.4131 13.2655 16.4462C12.9859 16.5739 12.9506 16.6487 12.3759 17.0627C11.9884 17.3423 11.9642 17.3379 11.6735 17.5581C11.2992 17.8466 11.3608 17.8378 11.1781 17.9523C11.0724 18.0183 10.9733 18.069 10.8874 18.1923C10.8434 18.2539 10.7487 18.3882 10.7839 18.5336C10.8236 18.6855 10.9865 18.7582 11.057 18.7912C11.2419 18.8727 11.3696 18.8352 11.6053 18.8418C11.8166 18.8484 11.9642 18.8837 12.2042 18.9453C12.737 19.0796 13.1158 19.3417 13.2479 19.4408C13.336 19.5068 13.5473 19.672 13.882 20.0903C14.34 20.6672 14.6043 21.1891 14.721 21.4247C14.8068 21.6031 15.0777 22.1623 15.5423 23.4945C15.8461 24.3643 16.0091 24.9235 16.3636 25.6678C16.5508 26.0597 16.7005 26.3174 16.9119 26.575C17.2642 27.0044 17.5108 27.2246 17.5108 27.2246C17.709 27.4007 17.8037 27.4536 17.8873 27.6187C17.9182 27.6804 18.0525 27.9644 17.938 28.2683C17.8543 28.4885 17.687 28.6008 17.5438 28.6954C17.2356 28.9002 16.9317 28.9399 16.6719 28.9685C16.3174 29.0103 16.0399 28.9751 15.714 28.9332C15.3948 28.8936 15.397 28.8694 15.0116 28.8143C14.5294 28.7461 14.1617 28.7307 14.0714 28.7285C13.6376 28.7153 13.3051 28.7395 13.0277 28.7637C12.7216 28.7879 12.5367 28.8033 12.2746 28.8496C11.9311 28.909 11.8673 28.9509 11.6581 28.9531C11.5326 28.9531 11.2397 28.9531 10.9733 28.7989C10.7905 28.6932 10.654 28.5325 10.4096 27.9952C10.207 27.5548 10.1057 27.3347 10.0155 26.9867C9.18534 23.7896 8.08218 21.57 7.97869 21.1869C7.97428 21.1715 7.95887 21.1054 7.90602 21.046C7.88621 21.0239 7.82455 20.9557 7.72547 20.9469C7.6462 20.9381 7.58674 20.9689 7.56252 20.9821C7.48325 22.704 7.50747 24.045 7.58014 24.7342C7.62418 25.1481 7.70785 25.5225 7.74308 25.6854C7.88841 26.3372 8.00291 26.5376 8.04254 26.6014C8.13502 26.7533 8.29136 26.9669 8.46751 27.1629C8.64807 27.3633 8.71413 27.3985 8.78459 27.5438C8.9167 27.8169 8.87046 28.0855 8.85725 28.1516C8.84845 28.2 8.77578 28.5325 8.47632 28.7505C8.35742 28.8364 8.21649 28.8958 7.80473 28.9399C7.22343 29.0037 6.75222 28.9707 6.52762 28.9487C6.1555 28.9156 6.1621 28.8914 5.51253 28.8121C5.03472 28.7549 4.79691 28.7263 4.60534 28.7219C4.12973 28.7109 3.73558 28.7725 3.23575 28.8496C2.96271 28.8914 2.79316 28.9266 2.48269 28.9487C2.3792 28.9553 2.21186 28.9597 1.88377 28.9663C1.25402 28.9795 1.17035 28.9751 1.05805 28.9575C0.859876 28.9266 0.672712 28.8958 0.467934 28.7681C0.353434 28.6954 0.148655 28.5677 0.0517705 28.3145C-0.0583256 28.0283 0.036357 27.7618 0.0693859 27.6715C0.104617 27.5725 0.133242 27.5394 0.423895 27.1453C0.729962 26.7291 0.769597 26.6697 0.804827 26.6102C0.958962 26.3548 1.03823 26.1368 1.08667 26.0025C1.28044 25.4608 1.30026 24.972 1.30466 24.8068C1.32448 24.0912 1.35751 19.1567 1.35311 12.377L1.3509 12.3814Z" fill="#C32628"></path>
<path d="M42.6344 24.3468C42.5992 24.2367 42.4362 23.706 41.9386 23.4704C41.6149 23.3185 41.2934 23.3581 41.1019 23.3824C40.9962 23.3956 40.7364 23.4352 40.4567 23.5805C40.0163 23.8095 39.8798 24.1134 39.4724 24.6441C39.2236 24.9655 38.8515 25.45 38.3186 25.8573C37.7351 26.3021 37.1869 26.4827 37.0569 26.5245C36.7267 26.628 35.9406 26.8636 35.0378 26.5927C34.7207 26.4981 34.2517 26.3505 33.9148 25.908C33.8157 25.7758 33.5163 25.3817 33.6065 24.9039C33.6197 24.8312 33.6726 24.5714 33.895 24.3666C34.0755 24.1971 34.2781 24.1486 34.4212 24.1178C34.648 24.0671 34.7978 24.0892 34.9981 24.098C35.1699 24.1046 35.4231 24.0826 35.9318 24.0385C35.9868 24.0341 36.72 23.9659 37.4137 23.8183C37.9751 23.6994 38.9858 23.4858 40.0692 22.8143C40.5888 22.4928 41.1833 22.1162 41.7096 21.383C42.3107 20.5441 42.4781 19.7162 42.5353 19.3462C42.5661 19.1282 42.6983 18.144 42.2755 16.9792C42.1896 16.7436 41.91 16.0257 41.2626 15.2991C40.4523 14.3919 39.5473 14.0088 38.9154 13.7489C37.8739 13.3196 37.0239 13.2359 36.1718 13.1522C34.8969 13.0267 33.873 13.1236 33.2278 13.2205C32.3713 13.3504 31.8538 13.531 31.6688 13.5992C31.1118 13.8018 30.6692 14.0418 30.3565 14.2356C29.9668 14.0044 29.4031 13.7137 28.6852 13.4803C27.4698 13.0862 26.4899 13.0796 25.4638 13.0818C23.5526 13.0862 22.1896 13.4561 21.7668 13.5794C20.3972 13.9757 19.8049 14.4029 19.6089 14.5526C19.1972 14.8675 18.5762 15.3541 18.2966 16.2129C18.1865 16.5498 17.9795 17.2368 18.3758 18.0229C18.6709 18.6086 19.3579 18.6989 19.5297 18.7297C20.0845 18.8266 20.5205 18.6284 20.7627 18.5205C21.2251 18.3113 21.5026 18.0185 21.9253 17.5649C22.3525 17.1069 22.3085 17.0474 22.7709 16.5124C23.3236 15.8694 23.601 15.5479 24.092 15.3189C24.6998 15.0349 25.2591 15.0591 25.455 15.0701C25.7633 15.0877 26.1442 15.1097 26.5274 15.3696C26.6683 15.462 27.069 15.7329 27.1747 16.2437C27.2452 16.585 27.1505 16.8691 27.0955 16.999C27.0096 17.1972 26.84 17.457 26.2984 17.7741C25.7126 18.1198 25.1864 18.2365 24.8671 18.3113C24.5368 18.3884 23.2685 18.6835 22.3723 18.9785C21.9386 19.1194 21.2097 19.3616 20.3642 19.8527C19.6838 20.2468 18.9726 20.6586 18.345 21.4931C17.7989 22.2219 17.5832 22.9155 17.5105 23.182C17.4665 23.3449 17.3057 23.9615 17.3409 24.8026C17.3718 25.5006 17.4202 26.5928 18.2063 27.5572C18.8713 28.3719 19.7168 28.6714 20.0053 28.7705C20.6306 28.9818 21.1525 28.9884 21.4585 28.9884C21.7646 28.9906 22.478 28.9642 23.2971 28.6515C23.9643 28.3961 24.495 28.0284 24.6976 27.8853C24.9618 27.7003 25.237 27.533 25.4947 27.3392C25.7787 27.1256 25.9483 26.9781 26.2389 26.9208C26.36 26.8988 26.6066 26.8504 26.7872 26.9913C26.9083 27.086 26.9699 27.2181 26.9942 27.4273C27.0382 27.784 27.0052 27.828 27.0646 28.0636C27.1549 28.4159 27.4103 28.6273 27.4522 28.6604C27.7252 28.8805 28.0291 28.9004 28.3065 28.9202C28.5707 28.9378 28.7139 28.9048 29.1719 28.8409C29.1719 28.8409 29.5484 28.7881 30.1759 28.7198C30.5525 28.6802 30.8695 28.6802 31.856 28.7506C33.1287 28.8409 33.2498 28.885 33.9743 28.929C34.6172 28.9686 35.2866 29.0105 36.1409 28.9488C37.5193 28.8519 38.5168 28.5525 38.7766 28.471C39.4328 28.2684 40.0383 28.079 40.7452 27.6166C41.234 27.2952 41.9936 26.7843 42.4252 25.8265C42.5882 25.4654 42.8172 24.9369 42.6344 24.3468ZM27.1681 20.5925C27.1681 20.8942 27.1527 21.143 27.1417 21.4182C27.1109 22.2594 27.1373 22.4884 27.0888 23.0807C27.0558 23.4836 26.8665 24.5053 26.0385 24.9677C25.5475 25.243 24.8693 25.2958 24.2968 24.9942C23.5526 24.6044 23.383 23.8205 23.3258 23.5585C23.1496 22.7504 23.4667 22.1052 23.5658 21.9093C23.8058 21.4381 24.1251 21.1452 24.3497 20.9801C24.7284 20.7004 24.8847 20.5991 25.1313 20.478C25.3802 20.3569 25.5255 20.2864 25.5607 20.2666C25.8316 20.1213 26.0341 20.0266 26.4239 19.9011C26.5582 19.8593 26.7299 19.8108 26.8885 19.8879C27.0272 19.9562 27.0933 20.0839 27.1153 20.1279C27.2033 20.3041 27.1681 20.4736 27.1681 20.5925ZM34.8572 15.1251C35.8305 15.1251 36.621 16.6841 36.621 18.6086C36.621 20.5331 35.8305 22.0898 34.8572 22.0898C33.884 22.0898 33.0957 20.5309 33.0957 18.6086C33.0957 16.6863 33.884 15.1251 34.8572 15.1251Z" fill="#C32628"></path>
<path d="M49.5407 16.2524C49.6728 16.0256 49.8665 15.7085 50.1198 15.3386C50.3069 15.0677 50.439 14.8762 50.5888 14.6978C51.1481 14.0306 51.8263 13.7114 52.0949 13.588C52.7753 13.2732 53.3654 13.2049 53.6869 13.1675C53.7397 13.1609 54.0084 13.1323 54.3651 13.1301C54.6513 13.1301 54.9684 13.1256 55.3405 13.1917C55.7325 13.2622 56.1464 13.3348 56.5494 13.6475C56.6771 13.7466 56.9854 13.991 57.1549 14.4248C57.298 14.7881 57.2672 15.0942 57.2298 15.4861C57.1857 15.9375 57.0778 16.2546 56.8598 16.8931C56.7453 17.23 56.796 17.0297 56.4525 17.917C56.3996 18.0535 56.3116 18.2847 56.131 18.5468C55.9901 18.7516 55.8822 18.8484 55.7721 18.9167C55.695 18.9651 55.5717 19.04 55.4022 19.0532C55.3515 19.0576 55.171 19.0642 54.8957 18.9057C54.6733 18.7758 54.5897 18.6547 54.3783 18.4367C54.3783 18.4367 54.1052 18.1592 53.7243 17.8686C53.4006 17.622 53.2091 17.4788 52.9096 17.3754C52.4494 17.2168 52.0486 17.2653 51.8725 17.2895C51.4387 17.3467 51.1348 17.5075 51.0578 17.5493C50.6218 17.7871 50.3884 18.1108 50.2056 18.364C49.981 18.6723 49.8577 18.9519 49.7983 19.1039C49.6111 19.5795 49.5781 19.9846 49.5649 20.2026C49.424 22.2394 49.5142 23.6244 49.5407 24.6813C49.5451 24.8377 49.5495 25.0997 49.6265 25.4344C49.653 25.5467 49.7036 25.725 49.8247 26.0751C49.9524 26.4517 49.9722 26.5089 50.0097 26.5816C50.0955 26.7511 50.1836 26.8656 50.3179 27.0374C50.58 27.3765 50.6328 27.3611 50.7121 27.5306C50.8508 27.8235 50.8068 28.1031 50.798 28.1472C50.7891 28.2 50.7275 28.5237 50.4523 28.7527C50.2166 28.9487 49.9568 28.9641 49.501 28.9861C49.2016 29.0015 48.9594 28.9751 48.4881 28.9244C47.9685 28.8672 47.9377 28.843 47.5259 28.8011C47.2154 28.7681 46.8257 28.7285 46.3655 28.7395C46.1255 28.7461 46.0925 28.7593 45.1324 28.876C44.3133 28.9751 44.0931 28.9949 43.8003 28.9993C43.6703 29.0015 43.2938 29.0059 42.8248 28.9002C42.4461 28.8165 42.3294 28.7307 42.2567 28.6668C41.9771 28.4092 41.9727 28.0371 41.9727 27.9996C41.9727 27.8169 42.0321 27.6847 42.0828 27.568C42.1752 27.3589 42.2523 27.3104 42.4901 27C42.6839 26.7467 42.8138 26.575 42.9217 26.3328C42.9855 26.1918 43.0274 26.0597 43.0824 25.8153C43.2322 25.1569 43.2674 24.6681 43.2674 24.6681C43.4325 22.4001 43.2674 19.8944 43.3224 19.0312C43.3268 18.9541 43.3445 18.7185 43.2718 18.4257C43.2476 18.3222 43.1837 18.1064 43.0384 17.8686C42.9283 17.6858 42.8182 17.5735 42.6002 17.3467C42.3272 17.0627 42.2655 17.0473 42.1774 16.9019C42.1312 16.8271 41.9991 16.5915 42.0211 16.281C42.0277 16.1995 42.0409 16.0388 42.1488 15.8714C42.2545 15.7085 42.3932 15.6292 42.5011 15.5676C42.6839 15.4663 42.8358 15.4355 43.0032 15.398C43.0032 15.398 43.1155 15.3738 43.8861 15.1866C44.2472 15.0986 44.5137 15.0149 44.7273 14.9466C44.9739 14.8674 45.2843 14.7705 45.6741 14.6075C46.2092 14.3851 46.4778 14.2728 46.7817 14.0416C47.1604 13.7554 47.3608 13.5616 47.3608 13.5616C47.5391 13.3877 47.6096 13.2952 47.7769 13.2159C48.0301 13.0948 48.3054 13.0772 48.4331 13.0926C48.7766 13.1301 48.8449 13.1719 49.0276 13.3436C49.0761 13.3899 49.2126 13.511 49.3447 13.9712C49.4548 14.3521 49.4768 14.6604 49.4922 14.9312C49.512 15.2813 49.5319 15.7283 49.5363 16.2524H49.5407Z" fill="#C32628"></path>
<path d="M39.5156 2.12929C39.6676 2.06543 39.8195 2.00378 39.9692 1.93992L40.6144 3.49888C40.7487 3.45925 40.9006 3.4064 41.0636 3.33154C41.2265 3.25667 41.3895 3.18841 41.5304 3.07171C41.5766 3.03208 41.6251 2.98584 41.6669 2.91758C41.6669 2.91758 41.7153 2.83831 41.7418 2.73702C41.7792 2.58949 41.7946 2.00158 41.766 1.20008C41.9179 1.14063 42.0721 1.08338 42.224 1.02393C42.2284 1.91791 42.2306 2.45517 42.235 2.57628C42.235 2.5939 42.2284 2.73262 42.2218 2.78546C42.2108 2.86253 42.1932 2.92198 42.1535 2.99465C42.1227 3.0563 42.0787 3.13557 42.0236 3.22585C42.6225 3.69265 43.2237 4.15946 43.8226 4.62407C43.6508 4.69893 43.4813 4.776 43.3095 4.85086C42.7613 4.41268 42.213 3.9767 41.6625 3.53852C41.6008 3.58036 41.515 3.63761 41.4049 3.69486C41.3102 3.7433 41.2375 3.77413 41.1384 3.81596C41.0526 3.85119 40.9381 3.89743 40.7971 3.94587C41.0173 4.49415 41.2353 5.04023 41.4555 5.58851C41.3036 5.65236 41.1517 5.71622 41.0019 5.78008C40.5065 4.56241 40.0111 3.34475 39.5178 2.12709L39.5156 2.12929Z" fill="#C32628"></path>
<path d="M72.2994 19.4297C72.2378 19.1324 72.1607 18.7096 72.0968 18.168C70.8021 18.3683 69.5096 18.5687 68.2148 18.7691C68.2303 18.9364 68.2435 19.1038 68.2567 19.2733C68.7345 19.1985 69.2101 19.1236 69.6879 19.0509C69.7055 19.2161 69.7254 19.3812 69.7474 19.5486C69.7628 19.6719 69.7782 19.7952 69.7958 19.9163C69.3885 20.2906 68.9811 20.6649 68.576 21.0393C68.6002 21.2529 68.6244 21.4664 68.6486 21.6822C69.0824 21.2749 69.5162 20.8675 69.9522 20.4624C69.9852 20.5659 70.0667 20.7618 70.2516 20.9314C70.5026 21.1582 70.7867 21.1956 70.9298 21.2132C71.0333 21.2242 71.3151 21.2551 71.6278 21.1097C71.6807 21.0855 71.9031 20.9798 72.0968 20.7376C72.1541 20.6649 72.2664 20.5086 72.3302 20.2928C72.4249 19.9779 72.3611 19.7181 72.2994 19.4297ZM71.8546 20.1321C71.793 20.3325 71.6763 20.4492 71.652 20.4734C71.5089 20.6121 71.3526 20.6539 71.2777 20.6716C71.194 20.6936 71.0443 20.7332 70.8638 20.6782C70.6744 20.6209 70.5643 20.4954 70.5158 20.4381C70.4454 20.3545 70.4013 20.2686 70.3661 20.1805C70.2076 19.7776 70.1459 19.0774 70.1371 18.9673C70.6634 18.8836 71.1896 18.8021 71.7181 18.7206C71.7577 19.0509 71.8018 19.3152 71.8304 19.4891C71.881 19.7776 71.9163 19.9295 71.8546 20.1321Z" fill="#C32628"></path>
<path d="M47.0618 0.0551758C46.9054 0.0661854 46.7491 0.0749931 46.5928 0.0860027C46.2096 1.4534 45.8265 2.81859 45.4434 4.18598L45.9718 4.14635C46.0533 3.83808 46.1326 3.52761 46.214 3.21713C46.8482 3.14447 47.4845 3.07181 48.1187 2.99694C48.2662 3.27438 48.4116 3.55183 48.5591 3.82927C48.7418 3.81606 48.9268 3.80505 49.1096 3.79184C48.427 2.54555 47.7444 1.30146 47.0618 0.0551758ZM46.3351 2.7173C46.5245 2.06993 46.7139 1.42257 46.901 0.775204L47.8919 2.55215C47.3722 2.6072 46.8548 2.66225 46.3351 2.7173Z" fill="#C32628"></path>
<path d="M70.4377 13.3525C69.0197 13.3834 67.6016 13.4142 66.1836 13.445C66.2452 13.6102 66.3091 13.7753 66.373 13.9405C66.6922 13.9294 67.0137 13.9162 67.333 13.903C67.5884 14.4887 67.8438 15.0744 68.0971 15.6624C67.8747 15.8825 67.6523 16.1027 67.4299 16.3229C67.4959 16.4947 67.562 16.6686 67.6258 16.8404C68.6189 15.8253 69.612 14.808 70.6051 13.7929C70.5478 13.6454 70.4928 13.5001 70.4377 13.3525ZM68.4626 15.3122C68.2578 14.83 68.053 14.35 67.8504 13.87C68.5242 13.8612 69.198 13.8546 69.874 13.8458C69.4028 14.3346 68.9316 14.8234 68.4626 15.3122Z" fill="#C32628"></path>
<path d="M51.1523 3.90841C51.3329 2.60487 51.5135 1.30354 51.6918 0C52.4405 0.107894 53.1913 0.213586 53.94 0.321481C53.9158 0.486625 53.8937 0.649567 53.8695 0.814711C53.2816 0.731038 52.6937 0.647365 52.108 0.563692C52.0529 1.00187 51.9979 1.44006 51.9428 1.88044C52.4735 1.95971 53.002 2.03678 53.5326 2.11605C53.5128 2.27018 53.4908 2.42432 53.471 2.57845C52.9337 2.50579 52.3964 2.43312 51.857 2.35826C51.7865 2.90433 51.716 3.45041 51.6456 3.99428C51.4804 3.96566 51.3175 3.93704 51.1523 3.90841Z" fill="#C32628"></path>
<path d="M55.5957 4.85566C56.0779 3.63139 56.5579 2.40712 57.0402 1.18506C57.7426 1.4647 58.4472 1.74655 59.1496 2.02619C59.0879 2.18033 59.0263 2.33446 58.9646 2.4886C58.4142 2.2684 57.8615 2.05041 57.311 1.83022C57.1547 2.24418 56.9983 2.65594 56.842 3.0699C57.3396 3.27028 57.8351 3.47065 58.3327 3.67323C58.2754 3.81856 58.2204 3.96388 58.1631 4.10701C57.6567 3.90883 57.1525 3.71286 56.646 3.51469C56.45 4.02774 56.2519 4.54299 56.0559 5.05604C55.9018 4.98998 55.7498 4.92392 55.5957 4.85566Z" fill="#C32628"></path>
<path d="M59.668 6.77072C60.4408 5.69838 61.2137 4.62605 61.9888 3.55371C62.6296 4.02272 63.2725 4.48953 63.9133 4.95854C63.8208 5.08845 63.7283 5.21836 63.6358 5.34828C63.1228 4.98056 62.6097 4.61504 62.0945 4.24732C61.8523 4.58641 61.6123 4.92331 61.3701 5.2624C61.8457 5.59709 62.3235 5.92958 62.7991 6.26428C62.7066 6.38538 62.6141 6.50869 62.5217 6.62979L61.1168 5.62131C60.8636 5.97582 60.6104 6.33033 60.355 6.68484L61.9448 7.82984C61.8479 7.95975 61.751 8.08967 61.6541 8.21958C60.9913 7.73736 60.3307 7.25514 59.668 6.77072Z" fill="#C32628"></path>
<path d="M67.7116 9.17105C67.694 9.0015 67.6367 8.86719 67.6103 8.80553C67.5729 8.71966 67.5288 8.64039 67.4672 8.55451C67.3262 8.35194 66.9299 7.86972 66.3816 7.25098C65.3753 8.08991 64.3713 8.92884 63.3672 9.76997C63.8912 10.4966 64.3316 11.0119 64.554 11.2012C64.6994 11.3245 64.8535 11.406 64.8535 11.406C64.9658 11.4633 65.0913 11.5293 65.2674 11.5469C65.5207 11.5733 65.7144 11.4831 65.8047 11.439C65.9765 11.3576 66.0822 11.2497 66.157 11.1748C66.2385 11.0911 66.3134 11.0163 66.3684 10.8885C66.4257 10.752 66.4279 10.6309 66.4279 10.5561C66.4301 10.4107 66.397 10.2896 66.3684 10.2104C66.4168 10.2324 66.4873 10.261 66.5776 10.2786C66.7427 10.3094 66.8704 10.2852 66.9035 10.2786C67.0268 10.2522 67.1105 10.2038 67.1831 10.1619C67.302 10.0937 67.4716 9.97916 67.5883 9.7964C67.7644 9.52336 67.7204 9.25693 67.7116 9.17105ZM65.928 10.6794C65.873 10.7829 65.8025 10.8401 65.7409 10.8885C65.688 10.9326 65.6087 10.9942 65.4854 11.0273C65.437 11.0405 65.3027 11.0779 65.1397 11.0251C64.9922 10.9766 64.9262 10.904 64.8425 10.8225C64.5628 10.4966 64.3118 10.1861 64.0322 9.86025C64.3669 9.57841 64.7016 9.29436 65.0362 9.01251C65.2763 9.30096 65.4987 9.5652 65.7387 9.85365C65.7893 9.9197 65.8421 9.98796 65.8884 10.0738C65.9324 10.1641 65.9809 10.2544 65.9875 10.3843C65.9897 10.4283 65.9941 10.5473 65.928 10.6794ZM67.2007 9.38684C67.1677 9.50574 67.1039 9.58061 67.0664 9.62465C67.0202 9.67749 66.9299 9.78098 66.7692 9.82943C66.604 9.88007 66.4653 9.83823 66.4389 9.82943C66.2957 9.78319 66.2187 9.70392 66.1306 9.62024C65.8686 9.31197 65.655 9.03673 65.393 8.73067C65.71 8.46644 66.0271 8.20221 66.342 7.94018C66.4345 8.03926 66.7471 8.38276 67.0246 8.73287C67.073 8.79452 67.1479 8.89581 67.2007 9.08077C67.2161 9.13802 67.2382 9.25032 67.2007 9.38684Z" fill="#C32628"></path>
</svg><style>@media (prefers-color-scheme: light) { :root { filter: none; } }
@media (prefers-color-scheme: dark) { :root { filter: none; } }
</style></svg>